<svg width="292" height="110" viewBox="0 0 292 110" fill="none" xmlns="http://www.w3.org/2000/svg">
<path d="M90.952 73.966V77.695H84.814V97H80.194V77.695H74.056V73.966H90.952ZM96.6659 76.54C95.8519 76.54 95.1699 76.287 94.6199 75.781C94.0919 75.253 93.8279 74.604 93.8279 73.834C93.8279 73.064 94.0919 72.426 94.6199 71.92C95.1699 71.392 95.8519 71.128 96.6659 71.128C97.4799 71.128 98.1509 71.392 98.6789 71.92C99.2289 72.426 99.5039 73.064 99.5039 73.834C99.5039 74.604 99.2289 75.253 98.6789 75.781C98.1509 76.287 97.4799 76.54 96.6659 76.54ZM98.9429 78.718V97H94.3229V78.718H98.9429ZM126.211 78.454C128.455 78.454 130.259 79.147 131.623 80.533C133.009 81.897 133.702 83.811 133.702 86.275V97H129.082V86.902C129.082 85.472 128.719 84.383 127.993 83.635C127.267 82.865 126.277 82.48 125.023 82.48C123.769 82.48 122.768 82.865 122.02 83.635C121.294 84.383 120.931 85.472 120.931 86.902V97H116.311V86.902C116.311 85.472 115.948 84.383 115.222 83.635C114.496 82.865 113.506 82.48 112.252 82.48C110.976 82.48 109.964 82.865 109.216 83.635C108.49 84.383 108.127 85.472 108.127 86.902V97H103.507V78.718H108.127V80.929C108.721 80.159 109.48 79.554 110.404 79.114C111.35 78.674 112.384 78.454 113.506 78.454C114.936 78.454 116.212 78.762 117.334 79.378C118.456 79.972 119.325 80.83 119.941 81.952C120.535 80.896 121.393 80.049 122.515 79.411C123.659 78.773 124.891 78.454 126.211 78.454ZM155.082 87.463C155.082 88.123 155.038 88.717 154.95 89.245H141.585C141.695 90.565 142.157 91.599 142.971 92.347C143.785 93.095 144.786 93.469 145.974 93.469C147.69 93.469 148.911 92.732 149.637 91.258H154.62C154.092 93.018 153.08 94.47 151.584 95.614C150.088 96.736 148.251 97.297 146.073 97.297C144.313 97.297 142.729 96.912 141.321 96.142C139.935 95.35 138.846 94.239 138.054 92.809C137.284 91.379 136.899 89.729 136.899 87.859C136.899 85.967 137.284 84.306 138.054 82.876C138.824 81.446 139.902 80.346 141.288 79.576C142.674 78.806 144.269 78.421 146.073 78.421C147.811 78.421 149.362 78.795 150.726 79.543C152.112 80.291 153.179 81.358 153.927 82.744C154.697 84.108 155.082 85.681 155.082 87.463ZM150.297 86.143C150.275 84.955 149.846 84.009 149.01 83.305C148.174 82.579 147.151 82.216 145.941 82.216C144.797 82.216 143.829 82.568 143.037 83.272C142.267 83.954 141.794 84.911 141.618 86.143H150.297ZM181.992 73.966V77.695H175.854V97H171.234V77.695H165.096V73.966H181.992ZM189.983 81.556C190.577 80.588 191.347 79.829 192.293 79.279C193.261 78.729 194.361 78.454 195.593 78.454V83.305H194.372C192.92 83.305 191.82 83.646 191.072 84.328C190.346 85.01 189.983 86.198 189.983 87.892V97H185.363V78.718H189.983V81.556ZM197.517 87.793C197.517 85.945 197.88 84.306 198.606 82.876C199.354 81.446 200.355 80.346 201.609 79.576C202.885 78.806 204.304 78.421 205.866 78.421C207.23 78.421 208.418 78.696 209.43 79.246C210.464 79.796 211.289 80.489 211.905 81.325V78.718H216.558V97H211.905V94.327C211.311 95.185 210.486 95.9 209.43 96.472C208.396 97.022 207.197 97.297 205.833 97.297C204.293 97.297 202.885 96.901 201.609 96.109C200.355 95.317 199.354 94.206 198.606 92.776C197.88 91.324 197.517 89.663 197.517 87.793ZM211.905 87.859C211.905 86.737 211.685 85.78 211.245 84.988C210.805 84.174 210.211 83.558 209.463 83.14C208.715 82.7 207.912 82.48 207.054 82.48C206.196 82.48 205.404 82.689 204.678 83.107C203.952 83.525 203.358 84.141 202.896 84.955C202.456 85.747 202.236 86.693 202.236 87.793C202.236 88.893 202.456 89.861 202.896 90.697C203.358 91.511 203.952 92.138 204.678 92.578C205.426 93.018 206.218 93.238 207.054 93.238C207.912 93.238 208.715 93.029 209.463 92.611C210.211 92.171 210.805 91.555 211.245 90.763C211.685 89.949 211.905 88.981 211.905 87.859ZM219.882 87.859C219.882 85.967 220.267 84.317 221.037 82.909C221.807 81.479 222.874 80.379 224.238 79.609C225.602 78.817 227.164 78.421 228.924 78.421C231.19 78.421 233.06 78.993 234.534 80.137C236.03 81.259 237.031 82.843 237.537 84.889H232.554C232.29 84.097 231.839 83.481 231.201 83.041C230.585 82.579 229.815 82.348 228.891 82.348C227.571 82.348 226.526 82.832 225.756 83.8C224.986 84.746 224.601 86.099 224.601 87.859C224.601 89.597 224.986 90.95 225.756 91.918C226.526 92.864 227.571 93.337 228.891 93.337C230.761 93.337 231.982 92.501 232.554 90.829H237.537C237.031 92.809 236.03 94.382 234.534 95.548C233.038 96.714 231.168 97.297 228.924 97.297C227.164 97.297 225.602 96.912 224.238 96.142C222.874 95.35 221.807 94.25 221.037 92.842C220.267 91.412 219.882 89.751 219.882 87.859ZM251.746 97L245.542 89.212V97H240.922V72.58H245.542V86.473L251.68 78.718H257.686L249.634 87.892L257.752 97H251.746ZM277.188 87.463C277.188 88.123 277.144 88.717 277.056 89.245H263.691C263.801 90.565 264.263 91.599 265.077 92.347C265.891 93.095 266.892 93.469 268.08 93.469C269.796 93.469 271.017 92.732 271.743 91.258H276.726C276.198 93.018 275.186 94.47 273.69 95.614C272.194 96.736 270.357 97.297 268.179 97.297C266.419 97.297 264.835 96.912 263.427 96.142C262.041 95.35 260.952 94.239 260.16 92.809C259.39 91.379 259.005 89.729 259.005 87.859C259.005 85.967 259.39 84.306 260.16 82.876C260.93 81.446 262.008 80.346 263.394 79.576C264.78 78.806 266.375 78.421 268.179 78.421C269.917 78.421 271.468 78.795 272.832 79.543C274.218 80.291 275.285 81.358 276.033 82.744C276.803 84.108 277.188 85.681 277.188 87.463ZM272.403 86.143C272.381 84.955 271.952 84.009 271.116 83.305C270.28 82.579 269.257 82.216 268.047 82.216C266.903 82.216 265.935 82.568 265.143 83.272C264.373 83.954 263.9 84.911 263.724 86.143H272.403ZM285.18 81.556C285.774 80.588 286.544 79.829 287.49 79.279C288.458 78.729 289.558 78.454 290.79 78.454V83.305H289.569C288.117 83.305 287.017 83.646 286.269 84.328C285.543 85.01 285.18 86.198 285.18 87.892V97H280.56V78.718H285.18V81.556Z" fill="#05005C"/>
<path d="M101.588 28.828C101.588 30.5453 101.174 32.1553 100.346 33.658C99.5487 35.1607 98.276 36.372 96.528 37.292C94.8107 38.212 92.6333 38.672 89.996 38.672H84.614V51H78.174V18.892H89.996C92.48 18.892 94.596 19.3213 96.344 20.18C98.092 21.0387 99.3953 22.2193 100.254 23.722C101.143 25.2247 101.588 26.9267 101.588 28.828ZM89.72 33.474C91.4987 33.474 92.8173 33.0753 93.676 32.278C94.5347 31.45 94.964 30.3 94.964 28.828C94.964 25.7 93.216 24.136 89.72 24.136H84.614V33.474H89.72ZM112.6 29.472C113.428 28.1227 114.502 27.0647 115.82 26.298C117.17 25.5313 118.703 25.148 120.42 25.148V31.91H118.718C116.694 31.91 115.161 32.3853 114.118 33.336C113.106 34.2867 112.6 35.9427 112.6 38.304V51H106.16V25.516H112.6V29.472ZM136.074 51.414C133.621 51.414 131.413 50.8773 129.45 49.804C127.487 48.7 125.939 47.1513 124.804 45.158C123.7 43.1647 123.148 40.8647 123.148 38.258C123.148 35.6513 123.715 33.3513 124.85 31.358C126.015 29.3647 127.595 27.8313 129.588 26.758C131.581 25.654 133.805 25.102 136.258 25.102C138.711 25.102 140.935 25.654 142.928 26.758C144.921 27.8313 146.485 29.3647 147.62 31.358C148.785 33.3513 149.368 35.6513 149.368 38.258C149.368 40.8647 148.77 43.1647 147.574 45.158C146.409 47.1513 144.814 48.7 142.79 49.804C140.797 50.8773 138.558 51.414 136.074 51.414ZM136.074 45.802C137.239 45.802 138.328 45.526 139.34 44.974C140.383 44.3913 141.211 43.5327 141.824 42.398C142.437 41.2633 142.744 39.8833 142.744 38.258C142.744 35.8353 142.1 33.98 140.812 32.692C139.555 31.3733 138.006 30.714 136.166 30.714C134.326 30.714 132.777 31.3733 131.52 32.692C130.293 33.98 129.68 35.8353 129.68 38.258C129.68 40.6807 130.278 42.5513 131.474 43.87C132.701 45.158 134.234 45.802 136.074 45.802ZM163.844 51.414C161.759 51.414 159.888 51.046 158.232 50.31C156.576 49.5433 155.257 48.516 154.276 47.228C153.325 45.94 152.804 44.514 152.712 42.95H159.198C159.321 43.9313 159.796 44.744 160.624 45.388C161.483 46.032 162.541 46.354 163.798 46.354C165.025 46.354 165.975 46.1087 166.65 45.618C167.355 45.1273 167.708 44.4987 167.708 43.732C167.708 42.904 167.279 42.2907 166.42 41.892C165.592 41.4627 164.258 41.0027 162.418 40.512C160.517 40.052 158.953 39.5767 157.726 39.086C156.53 38.5953 155.487 37.844 154.598 36.832C153.739 35.82 153.31 34.4553 153.31 32.738C153.31 31.3273 153.709 30.0393 154.506 28.874C155.334 27.7087 156.499 26.7887 158.002 26.114C159.535 25.4393 161.329 25.102 163.384 25.102C166.42 25.102 168.843 25.8687 170.652 27.402C172.461 28.9047 173.458 30.944 173.642 33.52H167.478C167.386 32.508 166.957 31.7107 166.19 31.128C165.454 30.5147 164.457 30.208 163.2 30.208C162.035 30.208 161.13 30.4227 160.486 30.852C159.873 31.2813 159.566 31.8793 159.566 32.646C159.566 33.5047 159.995 34.164 160.854 34.624C161.713 35.0533 163.047 35.498 164.856 35.958C166.696 36.418 168.214 36.8933 169.41 37.384C170.606 37.8747 171.633 38.6413 172.492 39.684C173.381 40.696 173.841 42.0453 173.872 43.732C173.872 45.204 173.458 46.5227 172.63 47.688C171.833 48.8533 170.667 49.7733 169.134 50.448C167.631 51.092 165.868 51.414 163.844 51.414ZM193.51 25.148C195.442 25.148 197.16 25.5773 198.662 26.436C200.165 27.264 201.33 28.506 202.158 30.162C203.017 31.7873 203.446 33.75 203.446 36.05V51H197.006V36.924C197.006 34.9 196.5 33.3513 195.488 32.278C194.476 31.174 193.096 30.622 191.348 30.622C189.57 30.622 188.159 31.174 187.116 32.278C186.104 33.3513 185.598 34.9 185.598 36.924V51H179.158V16.96H185.598V28.69C186.426 27.586 187.53 26.7273 188.91 26.114C190.29 25.47 191.824 25.148 193.51 25.148ZM220.886 51.414C218.433 51.414 216.225 50.8773 214.262 49.804C212.3 48.7 210.751 47.1513 209.616 45.158C208.512 43.1647 207.96 40.8647 207.96 38.258C207.96 35.6513 208.528 33.3513 209.662 31.358C210.828 29.3647 212.407 27.8313 214.4 26.758C216.394 25.654 218.617 25.102 221.07 25.102C223.524 25.102 225.747 25.654 227.74 26.758C229.734 27.8313 231.298 29.3647 232.432 31.358C233.598 33.3513 234.18 35.6513 234.18 38.258C234.18 40.8647 233.582 43.1647 232.386 45.158C231.221 47.1513 229.626 48.7 227.602 49.804C225.609 50.8773 223.37 51.414 220.886 51.414ZM220.886 45.802C222.052 45.802 223.14 45.526 224.152 44.974C225.195 44.3913 226.023 43.5327 226.636 42.398C227.25 41.2633 227.556 39.8833 227.556 38.258C227.556 35.8353 226.912 33.98 225.624 32.692C224.367 31.3733 222.818 30.714 220.978 30.714C219.138 30.714 217.59 31.3733 216.332 32.692C215.106 33.98 214.492 35.8353 214.492 38.258C214.492 40.6807 215.09 42.5513 216.286 43.87C217.513 45.158 219.046 45.802 220.886 45.802ZM245.344 29.472C246.172 28.1227 247.246 27.0647 248.564 26.298C249.914 25.5313 251.447 25.148 253.164 25.148V31.91H251.462C249.438 31.91 247.905 32.3853 246.862 33.336C245.85 34.2867 245.344 35.9427 245.344 38.304V51H238.904V25.516H245.344V29.472ZM281.192 37.706C281.192 38.626 281.131 39.454 281.008 40.19H262.378C262.531 42.03 263.175 43.4713 264.31 44.514C265.445 45.5567 266.84 46.078 268.496 46.078C270.888 46.078 272.59 45.0507 273.602 42.996H280.548C279.812 45.4493 278.401 47.4733 276.316 49.068C274.231 50.632 271.67 51.414 268.634 51.414C266.181 51.414 263.973 50.8773 262.01 49.804C260.078 48.7 258.56 47.1513 257.456 45.158C256.383 43.1647 255.846 40.8647 255.846 38.258C255.846 35.6207 256.383 33.3053 257.456 31.312C258.529 29.3187 260.032 27.7853 261.964 26.712C263.896 25.6387 266.119 25.102 268.634 25.102C271.057 25.102 273.219 25.6233 275.12 26.666C277.052 27.7087 278.539 29.196 279.582 31.128C280.655 33.0293 281.192 35.222 281.192 37.706ZM274.522 35.866C274.491 34.21 273.893 32.8913 272.728 31.91C271.563 30.898 270.137 30.392 268.45 30.392C266.855 30.392 265.506 30.8827 264.402 31.864C263.329 32.8147 262.669 34.1487 262.424 35.866H274.522Z" fill="#05005C"/>
<path d="M0 90.1994V90.449L8.23705 94.9419V46.2684L0 50.7614V90.1994Z" fill="#FA602D"/>
<path d="M23.1303 103.096V38.1147L14.9764 42.6077V98.603L23.1303 103.096Z" fill="#FA602D"/>
<path d="M29.8697 68.0676L38.1067 63.5747V29.9608L8.98587 13.1539L0.832031 17.6468L29.8697 34.4538V68.0676Z" fill="#FA602D"/>
<path d="M44.8461 59.8305L52.9999 55.3376V21.8069L23.9623 5L15.7252 9.49294L44.8461 26.2166V26.2998V59.8305Z" fill="#FA602D"/>
</svg>
