<svg width="273" height="77" viewBox="0 0 273 77" fill="none" xmlns="http://www.w3.org/2000/svg">
<path d="M91.588 32.828C91.588 34.5453 91.174 36.1553 90.346 37.658C89.5487 39.1607 88.276 40.372 86.528 41.292C84.8107 42.212 82.6333 42.672 79.996 42.672H74.614V55H68.174V22.892H79.996C82.48 22.892 84.596 23.3213 86.344 24.18C88.092 25.0387 89.3953 26.2193 90.254 27.722C91.1433 29.2247 91.588 30.9267 91.588 32.828ZM79.72 37.474C81.4987 37.474 82.8173 37.0753 83.676 36.278C84.5347 35.45 84.964 34.3 84.964 32.828C84.964 29.7 83.216 28.136 79.72 28.136H74.614V37.474H79.72ZM102.6 33.472C103.428 32.1227 104.502 31.0647 105.82 30.298C107.17 29.5313 108.703 29.148 110.42 29.148V35.91H108.718C106.694 35.91 105.161 36.3853 104.118 37.336C103.106 38.2867 102.6 39.9427 102.6 42.304V55H96.1603V29.516H102.6V33.472ZM126.074 55.414C123.621 55.414 121.413 54.8773 119.45 53.804C117.487 52.7 115.939 51.1513 114.804 49.158C113.7 47.1647 113.148 44.8647 113.148 42.258C113.148 39.6513 113.715 37.3513 114.85 35.358C116.015 33.3647 117.595 31.8313 119.588 30.758C121.581 29.654 123.805 29.102 126.258 29.102C128.711 29.102 130.935 29.654 132.928 30.758C134.921 31.8313 136.485 33.3647 137.62 35.358C138.785 37.3513 139.368 39.6513 139.368 42.258C139.368 44.8647 138.77 47.1647 137.574 49.158C136.409 51.1513 134.814 52.7 132.79 53.804C130.797 54.8773 128.558 55.414 126.074 55.414ZM126.074 49.802C127.239 49.802 128.328 49.526 129.34 48.974C130.383 48.3913 131.211 47.5327 131.824 46.398C132.437 45.2633 132.744 43.8833 132.744 42.258C132.744 39.8353 132.1 37.98 130.812 36.692C129.555 35.3733 128.006 34.714 126.166 34.714C124.326 34.714 122.777 35.3733 121.52 36.692C120.293 37.98 119.68 39.8353 119.68 42.258C119.68 44.6807 120.278 46.5513 121.474 47.87C122.701 49.158 124.234 49.802 126.074 49.802ZM153.844 55.414C151.759 55.414 149.888 55.046 148.232 54.31C146.576 53.5433 145.257 52.516 144.276 51.228C143.325 49.94 142.804 48.514 142.712 46.95H149.198C149.321 47.9313 149.796 48.744 150.624 49.388C151.483 50.032 152.541 50.354 153.798 50.354C155.025 50.354 155.975 50.1087 156.65 49.618C157.355 49.1273 157.708 48.4987 157.708 47.732C157.708 46.904 157.279 46.2907 156.42 45.892C155.592 45.4627 154.258 45.0027 152.418 44.512C150.517 44.052 148.953 43.5767 147.726 43.086C146.53 42.5953 145.487 41.844 144.598 40.832C143.739 39.82 143.31 38.4553 143.31 36.738C143.31 35.3273 143.709 34.0393 144.506 32.874C145.334 31.7087 146.499 30.7887 148.002 30.114C149.535 29.4393 151.329 29.102 153.384 29.102C156.42 29.102 158.843 29.8687 160.652 31.402C162.461 32.9047 163.458 34.944 163.642 37.52H157.478C157.386 36.508 156.957 35.7107 156.19 35.128C155.454 34.5147 154.457 34.208 153.2 34.208C152.035 34.208 151.13 34.4227 150.486 34.852C149.873 35.2813 149.566 35.8793 149.566 36.646C149.566 37.5047 149.995 38.164 150.854 38.624C151.713 39.0533 153.047 39.498 154.856 39.958C156.696 40.418 158.214 40.8933 159.41 41.384C160.606 41.8747 161.633 42.6413 162.492 43.684C163.381 44.696 163.841 46.0453 163.872 47.732C163.872 49.204 163.458 50.5227 162.63 51.688C161.833 52.8533 160.667 53.7733 159.134 54.448C157.631 55.092 155.868 55.414 153.844 55.414ZM183.51 29.148C185.442 29.148 187.16 29.5773 188.662 30.436C190.165 31.264 191.33 32.506 192.158 34.162C193.017 35.7873 193.446 37.75 193.446 40.05V55H187.006V40.924C187.006 38.9 186.5 37.3513 185.488 36.278C184.476 35.174 183.096 34.622 181.348 34.622C179.57 34.622 178.159 35.174 177.116 36.278C176.104 37.3513 175.598 38.9 175.598 40.924V55H169.158V20.96H175.598V32.69C176.426 31.586 177.53 30.7273 178.91 30.114C180.29 29.47 181.824 29.148 183.51 29.148ZM210.886 55.414C208.433 55.414 206.225 54.8773 204.262 53.804C202.3 52.7 200.751 51.1513 199.616 49.158C198.512 47.1647 197.96 44.8647 197.96 42.258C197.96 39.6513 198.528 37.3513 199.662 35.358C200.828 33.3647 202.407 31.8313 204.4 30.758C206.394 29.654 208.617 29.102 211.07 29.102C213.524 29.102 215.747 29.654 217.74 30.758C219.734 31.8313 221.298 33.3647 222.432 35.358C223.598 37.3513 224.18 39.6513 224.18 42.258C224.18 44.8647 223.582 47.1647 222.386 49.158C221.221 51.1513 219.626 52.7 217.602 53.804C215.609 54.8773 213.37 55.414 210.886 55.414ZM210.886 49.802C212.052 49.802 213.14 49.526 214.152 48.974C215.195 48.3913 216.023 47.5327 216.636 46.398C217.25 45.2633 217.556 43.8833 217.556 42.258C217.556 39.8353 216.912 37.98 215.624 36.692C214.367 35.3733 212.818 34.714 210.978 34.714C209.138 34.714 207.59 35.3733 206.332 36.692C205.106 37.98 204.492 39.8353 204.492 42.258C204.492 44.6807 205.09 46.5513 206.286 47.87C207.513 49.158 209.046 49.802 210.886 49.802ZM235.344 33.472C236.172 32.1227 237.246 31.0647 238.564 30.298C239.914 29.5313 241.447 29.148 243.164 29.148V35.91H241.462C239.438 35.91 237.905 36.3853 236.862 37.336C235.85 38.2867 235.344 39.9427 235.344 42.304V55H228.904V29.516H235.344V33.472ZM271.192 41.706C271.192 42.626 271.131 43.454 271.008 44.19H252.378C252.531 46.03 253.175 47.4713 254.31 48.514C255.445 49.5567 256.84 50.078 258.496 50.078C260.888 50.078 262.59 49.0507 263.602 46.996H270.548C269.812 49.4493 268.401 51.4733 266.316 53.068C264.231 54.632 261.67 55.414 258.634 55.414C256.181 55.414 253.973 54.8773 252.01 53.804C250.078 52.7 248.56 51.1513 247.456 49.158C246.383 47.1647 245.846 44.8647 245.846 42.258C245.846 39.6207 246.383 37.3053 247.456 35.312C248.529 33.3187 250.032 31.7853 251.964 30.712C253.896 29.6387 256.119 29.102 258.634 29.102C261.057 29.102 263.219 29.6233 265.12 30.666C267.052 31.7087 268.539 33.196 269.582 35.128C270.655 37.0293 271.192 39.222 271.192 41.706ZM264.522 39.866C264.491 38.21 263.893 36.8913 262.728 35.91C261.563 34.898 260.137 34.392 258.45 34.392C256.855 34.392 255.506 34.8827 254.402 35.864C253.329 36.8147 252.669 38.1487 252.424 39.866H264.522Z" fill="#05005C"/>
<path d="M0 66.877V67.0729L6.46564 70.5997V32.3936L0 35.9203V66.877Z" fill="#FA602D"/>
<path d="M18.1561 77V25.9933L11.7557 29.52V73.4733L18.1561 77Z" fill="#FA602D"/>
<path d="M23.4461 49.5047L29.9117 45.978V19.5929L7.05341 6.40039L0.653076 9.92704L23.4461 23.1196V49.5047Z" fill="#FA602D"/>
<path d="M35.2018 43.039L41.6022 39.5123V13.1925L18.8091 0L12.3435 3.52672L35.2018 16.6539V16.7192V43.039Z" fill="#FA602D"/>
</svg>
