<svg width="258" height="72" viewBox="0 0 258 72" fill="none" xmlns="http://www.w3.org/2000/svg">
<path d="M136.047 19.4417V24.8745H127.104V53.0001H120.373V24.8745H111.431V19.4417H136.047ZM144.371 23.1917C143.186 23.1917 142.192 22.8231 141.391 22.0859C140.621 21.3167 140.237 20.3712 140.237 19.2494C140.237 18.1275 140.621 17.198 141.391 16.4608C142.192 15.6916 143.186 15.307 144.371 15.307C145.557 15.307 146.535 15.6916 147.304 16.4608C148.106 17.198 148.506 18.1275 148.506 19.2494C148.506 20.3712 148.106 21.3167 147.304 22.0859C146.535 22.8231 145.557 23.1917 144.371 23.1917ZM147.689 26.3649V53.0001H140.958V26.3649H147.689ZM152.608 39.6825C152.608 36.926 153.169 34.5221 154.291 32.4708C155.413 30.3874 156.967 28.7848 158.954 27.663C160.942 26.5091 163.217 25.9322 165.782 25.9322C169.083 25.9322 171.807 26.7655 173.955 28.4322C176.134 30.0669 177.593 32.3746 178.33 35.3555H171.07C170.686 34.2016 170.028 33.3041 169.099 32.6631C168.201 31.99 167.08 31.6535 165.733 31.6535C163.81 31.6535 162.288 32.3586 161.166 33.7689C160.044 35.1471 159.483 37.1183 159.483 39.6825C159.483 42.2146 160.044 44.1858 161.166 45.5961C162.288 46.9743 163.81 47.6634 165.733 47.6634C168.458 47.6634 170.237 46.4454 171.07 44.0095H178.33C177.593 46.8942 176.134 49.1859 173.955 50.8846C171.775 52.5834 169.051 53.4328 165.782 53.4328C163.217 53.4328 160.942 52.8719 158.954 51.75C156.967 50.5962 155.413 48.9936 154.291 46.9422C153.169 44.8589 152.608 42.4389 152.608 39.6825ZM199.03 53.0001L189.992 41.6537V53.0001H183.261V17.4224H189.992V37.6632L198.934 26.3649H207.684L195.953 39.7306L207.781 53.0001H199.03ZM236.098 39.1055C236.098 40.0671 236.034 40.9325 235.905 41.7017H216.434C216.594 43.6249 217.267 45.1313 218.453 46.2211C219.639 47.3108 221.097 47.8557 222.828 47.8557C225.328 47.8557 227.107 46.782 228.165 44.6345H235.425C234.655 47.1987 233.181 49.3141 231.002 50.9808C228.822 52.6154 226.146 53.4328 222.973 53.4328C220.408 53.4328 218.101 52.8719 216.049 51.75C214.03 50.5962 212.443 48.9775 211.29 46.8942C210.168 44.8108 209.607 42.4069 209.607 39.6825C209.607 36.926 210.168 34.5061 211.29 32.4227C212.411 30.3393 213.982 28.7367 216.001 27.6149C218.02 26.4931 220.344 25.9322 222.973 25.9322C225.505 25.9322 227.764 26.4771 229.751 27.5668C231.771 28.6566 233.325 30.2111 234.415 32.2304C235.537 34.2176 236.098 36.5093 236.098 39.1055ZM229.126 37.1824C229.094 35.4516 228.469 34.0734 227.251 33.0477C226.033 31.99 224.543 31.4611 222.78 31.4611C221.113 31.4611 219.703 31.974 218.549 32.9996C217.428 33.9933 216.738 35.3875 216.482 37.1824H229.126ZM247.742 30.4996C248.607 29.0893 249.729 27.9835 251.107 27.1822C252.517 26.3809 254.12 25.9803 255.915 25.9803V33.0477H254.136C252.021 33.0477 250.418 33.5445 249.328 34.5381C248.271 35.5317 247.742 37.2625 247.742 39.7306V53.0001H241.011V26.3649H247.742V30.4996Z" fill="#FA602D"/>
<path fill-rule="evenodd" clip-rule="evenodd" d="M28.3237 52.6967L38.8429 46.6861L17.9132 34.0982L18.0969 5L52.6201 25.4361L52.8686 66.8683L28.3237 52.6967ZM38.2747 52.9029L47.7159 58.3537L47.6028 47.2114L38.2747 52.9029ZM47.8799 45.8603L47.5804 28.0643L22.6567 13.6746L22.9562 31.4705L47.8799 45.8603Z" fill="#FA602D"/>
<path fill-rule="evenodd" clip-rule="evenodd" d="M81.5688 52.8284L71.0495 46.8178L91.9793 34.2299L91.7955 5.13165L57.2724 25.5677L57.0239 67L81.5688 52.8284ZM71.6177 53.0345L62.1766 58.4854L62.2896 47.3431L71.6177 53.0345ZM62.0125 45.9919L62.312 28.196L87.2358 13.8062L86.9363 31.6022L62.0125 45.9919Z" fill="#040458"/>
</svg>
