<svg width="25" height="25" viewBox="0 0 25 25" fill="none" xmlns="http://www.w3.org/2000/svg">
<path d="M14.8452 25H10.1556C9.86173 25 9.57671 24.9026 9.34777 24.7239C9.11882 24.5452 8.95972 24.296 8.89684 24.0175L8.37247 21.6625C7.67296 21.3651 7.00968 20.9933 6.39483 20.5538L4.0281 21.285C3.74796 21.3717 3.4457 21.3628 3.17149 21.2598C2.89729 21.1568 2.66765 20.9659 2.52071 20.7188L0.170736 16.78C0.0253375 16.5327 -0.0292413 16.2448 0.0159286 15.9634C0.0610985 15.6821 0.203343 15.424 0.41939 15.2313L2.25531 13.6063C2.17182 12.8701 2.17182 12.1274 2.25531 11.3912L0.41939 9.77C0.203037 9.57722 0.0605991 9.31884 0.0154218 9.03723C-0.0297555 8.75561 0.0250077 8.46746 0.170736 8.22L2.51556 4.27875C2.6625 4.03164 2.89214 3.84074 3.16634 3.73773C3.44054 3.63473 3.74281 3.62583 4.02295 3.7125L6.38968 4.44375C6.70404 4.21875 7.03128 4.00875 7.36883 3.81875C7.69479 3.64125 8.02977 3.48 8.37247 3.33625L8.89813 0.98375C8.9607 0.705247 9.11951 0.45586 9.34821 0.276936C9.57691 0.0980123 9.86178 0.000299957 10.1556 0H14.8452C15.139 0.000299957 15.4239 0.0980123 15.6526 0.276936C15.8813 0.45586 16.0401 0.705247 16.1027 0.98375L16.6335 3.3375C17.3321 3.63658 17.9952 4.00834 18.6111 4.44625L20.9791 3.715C21.2591 3.62865 21.5611 3.63771 21.835 3.7407C22.1089 3.84369 22.3383 4.03441 22.4852 4.28125L24.8301 8.2225C25.129 8.73125 25.0259 9.375 24.5814 9.77125L22.7455 11.3962C22.829 12.1324 22.829 12.8751 22.7455 13.6112L24.5814 15.2362C25.0259 15.6337 25.129 16.2763 24.8301 16.785L22.4852 20.7262C22.3383 20.9734 22.1087 21.1643 21.8344 21.2673C21.5602 21.3703 21.258 21.3792 20.9778 21.2925L18.6111 20.5612C17.9967 21.0004 17.3339 21.3719 16.6348 21.6687L16.1027 24.0175C16.0398 24.2958 15.8809 24.5449 15.6522 24.7236C15.4236 24.9022 15.1388 24.9998 14.8452 25ZM12.4952 7.5C11.1285 7.5 9.81766 8.02678 8.85119 8.96447C7.88473 9.90215 7.34178 11.1739 7.34178 12.5C7.34178 13.8261 7.88473 15.0979 8.85119 16.0355C9.81766 16.9732 11.1285 17.5 12.4952 17.5C13.862 17.5 15.1728 16.9732 16.1393 16.0355C17.1058 15.0979 17.6487 13.8261 17.6487 12.5C17.6487 11.1739 17.1058 9.90215 16.1393 8.96447C15.1728 8.02678 13.862 7.5 12.4952 7.5Z" fill="#9D9D9D"/>
</svg>
