<svg width="295" height="339" viewBox="0 0 295 339" fill="none" xmlns="http://www.w3.org/2000/svg">
<path d="M51.7695 76.1802C52.1173 76.6995 52.5264 77.1749 52.9878 77.5963C53.7789 78.427 54.8786 79.5424 56.1522 80.7607C57.4259 81.979 58.5255 83.0628 59.372 83.8381C59.7993 84.2872 60.2772 84.6854 60.796 85.0247C60.4482 84.5103 60.042 84.0377 59.5856 83.6166C58.7945 82.7859 57.687 81.6626 56.4212 80.4522C55.1554 79.2418 54.0479 78.1422 53.2014 77.3669C52.7734 76.9154 52.2926 76.517 51.7695 76.1802Z" fill="#E0E0E0"/>
<path d="M43.6292 250.792H25.0621C24.0235 250.792 23.0275 250.38 22.2931 249.645C21.5587 248.911 21.1461 247.915 21.1461 246.876V245.951H47.5452V246.876C47.5452 247.915 47.1326 248.911 46.3982 249.645C45.6638 250.38 44.6678 250.792 43.6292 250.792Z" fill="#EBEBEB"/>
<path d="M167.526 1.14819e-05L162.628 25.2238L200.044 32.49L204.943 7.26622L167.526 1.14819e-05Z" fill="#F5F5F5"/>
<path d="M205.014 7.59965C204.886 7.70209 204.748 7.79215 204.603 7.86863L203.384 8.58062L198.859 11.1359L183.828 19.4899L183.71 19.5611L183.615 19.4503L183.393 19.1893L172.152 5.89879L168.797 1.8167C168.418 1.35786 168.117 0.986047 167.896 0.701251C167.783 0.576725 167.682 0.441615 167.595 0.297791C167.721 0.409481 167.837 0.531182 167.943 0.661696L168.9 1.72968L172.357 5.68519C175.277 9.09483 179.272 13.7544 183.678 18.9124C183.756 18.9955 183.83 19.0826 183.9 19.1735L183.686 19.1339L198.717 10.8669L203.313 8.46196L204.563 7.80534C204.708 7.7258 204.859 7.65706 205.014 7.59965Z" fill="#E0E0E0"/>
<path d="M162.698 25.5498C162.635 25.4706 166.123 22.5594 170.482 19.0469C174.841 15.5344 178.393 12.7181 178.48 12.813C178.567 12.908 175.055 15.7955 170.696 19.3159C166.337 22.8363 162.753 25.6289 162.698 25.5498Z" fill="#E0E0E0"/>
<path d="M190.98 14.9253C191.067 14.8778 193.179 18.8808 195.726 23.7935C198.274 28.7062 200.228 32.7804 200.141 32.82C200.054 32.8595 197.942 28.8645 195.394 23.9517C192.847 19.039 190.893 14.9648 190.98 14.9253Z" fill="#E0E0E0"/>
<path d="M285.385 33.5234L258.663 46.9457L267.71 64.9584L294.433 51.5361L285.385 33.5234Z" fill="#F5F5F5"/>
<path d="M285.587 33.706C285.557 33.8312 285.515 33.9531 285.461 34.0699C285.358 34.331 285.216 34.6712 285.042 35.0984L283.459 38.8482L278.143 51.2289L278.096 51.3318H277.985L277.724 51.2764L264.378 48.4126L260.335 47.5107L259.244 47.2576C259.114 47.2319 258.987 47.1949 258.864 47.1468C258.995 47.1528 259.125 47.1713 259.252 47.2022L260.359 47.4079L264.418 48.199L277.779 50.9837L278.048 51.0391L277.89 51.1182C279.994 46.3004 281.893 41.9493 283.285 38.777L284.931 35.043L285.398 34.0383C285.451 33.9222 285.515 33.811 285.587 33.706Z" fill="#E0E0E0"/>
<path d="M267.899 65.1048C267.827 65.1048 268.595 61.6082 269.615 57.3362C270.636 53.0643 271.53 49.6151 271.601 49.6309C271.672 49.6467 270.905 53.1276 269.884 57.3995C268.864 61.6714 267.97 65.1523 267.899 65.1048Z" fill="#E0E0E0"/>
<path d="M280.366 44.9792C280.366 44.908 283.618 46.3636 287.549 48.2227C291.481 50.0818 294.669 51.6482 294.622 51.7115C294.574 51.7748 291.37 50.327 287.439 48.4679C283.507 46.6089 280.335 45.0425 280.366 44.9792Z" fill="#E0E0E0"/>
<path d="M157.717 110.953L154.633 126.028L177.001 130.603L180.085 115.528L157.717 110.953Z" fill="#F5F5F5"/>
<path d="M180.102 115.735L179.857 115.894L179.121 116.305L176.416 117.8L167.381 122.713L167.302 122.752L167.247 122.689L167.12 122.531C164.525 119.366 162.176 116.574 160.467 114.501L158.466 112.057L157.928 111.384C157.859 111.311 157.801 111.228 157.754 111.139C157.829 111.206 157.898 111.28 157.959 111.361L158.529 112.009L160.578 114.383C162.302 116.447 164.668 119.264 167.279 122.373L167.413 122.531H167.279L176.345 117.673L179.098 116.226L179.849 115.838C179.93 115.795 180.015 115.761 180.102 115.735Z" fill="#E0E0E0"/>
<path d="M154.652 126.217C154.652 126.17 156.725 124.453 159.351 122.373C161.978 120.292 164.146 118.639 164.185 118.686C164.225 118.734 162.112 120.45 159.486 122.531C156.86 124.611 154.692 126.265 154.652 126.217Z" fill="#E0E0E0"/>
<path d="M171.669 120.015C171.717 120.015 172.959 122.388 174.438 125.355C175.917 128.322 177.08 130.766 177.033 130.79C176.985 130.814 175.735 128.417 174.256 125.45C172.777 122.483 171.606 120.047 171.669 120.015Z" fill="#E0E0E0"/>
<path d="M211.184 94.6525L246.99 90.5467L250.613 114.794L213.471 118.441L211.184 94.6525Z" fill="#EBEBEB"/>
<path d="M211.224 94.6603L226.714 79.1073C227.033 78.7891 227.451 78.5903 227.899 78.5442C228.347 78.4981 228.797 78.6075 229.174 78.8541L247.029 90.5466" fill="#E0E0E0"/>
<path d="M213.471 118.441C213.423 118.441 215.955 114.968 219.127 110.759C222.299 106.551 224.91 103.173 224.957 103.212C225.005 103.252 222.473 106.685 219.301 110.894C216.129 115.102 213.518 118.48 213.471 118.441Z" fill="#E0E0E0"/>
<path d="M250.613 114.802C250.565 114.841 247.448 112.072 243.635 108.615C239.822 105.158 236.768 102.287 236.808 102.287C236.848 102.287 239.972 105.016 243.786 108.473C247.599 111.93 250.652 114.754 250.613 114.802Z" fill="#E0E0E0"/>
<path d="M213.139 95.7916L211.873 84.6054L243.216 80.8635L244.83 92.6035L230.519 106.661L213.139 95.7916Z" fill="#FAFAFA"/>
<path d="M213.13 95.7917L213.471 95.9736L214.412 96.5353L217.948 98.695L230.606 106.519H230.392L244.68 92.4295L244.624 92.6035C244.316 90.3647 243.983 88.0151 243.659 85.626C243.438 84.0438 243.216 82.4616 243.002 80.8794L243.232 81.0534L211.881 84.7242L211.999 84.5738C212.363 88.0705 212.656 90.8552 212.861 92.7934C212.951 93.7322 213.022 94.4679 213.075 95.0006C213.075 95.2379 213.075 95.4278 213.123 95.5781C213.133 95.6436 213.133 95.7103 213.123 95.7758C213.117 95.7153 213.117 95.6544 213.123 95.5939L213.043 95.0401C212.975 94.5127 212.88 93.7849 212.759 92.8567C212.529 90.9106 212.189 88.1101 211.77 84.6055V84.4789H211.896L243.224 80.6579H243.43V80.8557C243.641 82.4379 243.859 84.0201 244.086 85.6023C244.419 87.9756 244.743 90.3489 245.051 92.5798V92.6826L244.972 92.7538L230.638 106.796L230.543 106.883L230.432 106.812L217.774 98.8216L214.301 96.5986L213.399 96.0132C213.304 95.946 213.215 95.872 213.13 95.7917Z" fill="#E0E0E0"/>
<path d="M238.857 87.0341C238.857 87.1449 234.11 87.7778 228.169 88.4502C222.228 89.1226 217.45 89.5815 217.442 89.4628C217.434 89.3442 222.189 88.7192 228.13 88.0468C234.071 87.3743 238.849 86.9155 238.857 87.0341Z" fill="#E0E0E0"/>
<path d="M239.197 90.1906C239.197 90.3093 234.451 90.9422 228.51 91.6146C222.568 92.287 217.79 92.738 217.782 92.6272C217.774 92.5165 222.529 91.8757 228.47 91.2032C234.411 90.5308 239.189 90.0799 239.197 90.1906Z" fill="#E0E0E0"/>
<path d="M239.593 93.8376C239.593 93.9484 234.846 94.6287 228.905 95.2616C222.964 95.8945 218.186 96.3849 218.17 96.2742C218.154 96.1634 222.916 95.4831 228.858 94.8502C234.799 94.2173 239.577 93.7269 239.593 93.8376Z" fill="#E0E0E0"/>
<path d="M239.981 97.4767C239.981 97.5954 235.432 98.2045 229.791 98.8453C224.151 99.4861 219.562 99.9133 219.507 99.8025C219.451 99.6918 224.056 99.0747 229.704 98.4339C235.353 97.7931 239.973 97.3659 239.981 97.4767Z" fill="#E0E0E0"/>
<path d="M236.31 101.108C235.729 101.295 235.129 101.414 234.522 101.464C233.406 101.63 231.864 101.828 230.163 102.041C228.462 102.255 226.903 102.413 225.78 102.508C225.175 102.6 224.562 102.619 223.953 102.563C224.537 102.382 225.139 102.266 225.748 102.215C226.864 102.049 228.407 101.844 230.107 101.63C231.808 101.416 233.367 101.266 234.482 101.171C235.087 101.079 235.7 101.058 236.31 101.108Z" fill="#E0E0E0"/>
<path d="M232.584 104.66C231.86 104.936 231.095 105.088 230.321 105.111C229.557 105.245 228.775 105.245 228.011 105.111C228.731 104.823 229.498 104.67 230.274 104.66C231.038 104.521 231.82 104.521 232.584 104.66Z" fill="#E0E0E0"/>
<path d="M170.878 338.198C170.878 338.255 134.922 338.296 90.5812 338.296C46.2408 338.296 10.2844 338.255 10.2844 338.198C10.2844 338.142 46.2333 338.1 90.5812 338.1C134.929 338.1 170.878 338.146 170.878 338.198Z" fill="#263238"/>
<path d="M119.694 303.859L117.55 332.291L105.185 332.038L103.492 302.451L119.694 303.859Z" fill="#FFBE9D"/>
<path d="M117.937 328.541V329.333C117.937 329.333 131.829 335.068 131.956 337.71L104.267 337.315L104.781 328.106C106.814 329.119 109.042 329.682 111.312 329.757C113.582 329.832 115.842 329.418 117.937 328.541Z" fill="#FA602D"/>
<path d="M122.296 333.739C122.194 333.739 122.035 333.162 122.352 332.513C122.668 331.864 123.23 331.619 123.277 331.722C123.325 331.825 122.977 332.165 122.724 332.703C122.47 333.241 122.415 333.731 122.296 333.739Z" fill="#263238"/>
<path d="M107.534 331.128C107.27 331.211 107.044 331.386 106.899 331.621C106.754 331.857 106.698 332.137 106.743 332.41C106.816 332.677 106.987 332.907 107.221 333.053C107.456 333.2 107.737 333.253 108.009 333.201C108.291 333.116 108.533 332.931 108.687 332.68C108.842 332.429 108.899 332.131 108.848 331.84C108.75 331.565 108.55 331.339 108.288 331.209C108.027 331.079 107.725 331.056 107.447 331.144" fill="white"/>
<path d="M118.024 329.451C118.024 329.586 117.344 329.641 116.672 330.068C115.999 330.496 115.635 331.049 115.517 330.994C115.398 330.939 115.604 330.163 116.426 329.665C117.249 329.167 118.056 329.333 118.024 329.451Z" fill="#263238"/>
<path d="M120.912 330.693C120.912 330.828 120.358 331.049 119.891 331.611C119.425 332.173 119.282 332.782 119.148 332.774C119.013 332.766 118.934 331.983 119.527 331.31C120.121 330.638 120.912 330.567 120.912 330.693Z" fill="#263238"/>
<path d="M104.267 337.37L104.386 335.274L131.093 336.453C131.524 336.785 131.823 337.258 131.94 337.789L104.267 337.37Z" fill="#263238"/>
<path d="M184.509 56.8062C184.509 56.8062 189.69 51.6878 191.067 50.8255C192.443 49.9632 194.136 48.025 195.204 47.582C196.428 46.9481 197.61 46.2346 198.74 45.446L200.845 42.8433C200.845 42.8433 202.427 42.6771 202.079 44.4255L205.995 43.6344C205.995 43.6344 207.047 44.5441 205.378 45.62C204.566 46.2418 203.546 46.5254 202.53 46.4111L200.884 48.2465L201.169 49.2116L210.662 50.4537C210.616 50.8859 210.412 51.286 210.09 51.5777C209.767 51.8695 209.349 52.0325 208.914 52.0359C207.332 52.0359 201.604 51.7906 201.604 51.7906L210.433 55.1211C210.433 55.1211 210.9 56.4739 208.139 56.0784C205.718 55.6345 203.325 55.0508 200.971 54.33L200.18 55.0262L202.593 56.4344L204.848 59.3456C204.366 59.5613 203.828 59.6154 203.313 59.4999C202.799 59.3844 202.335 59.1055 201.992 58.7048L200.536 57.2809H198.424C198.424 57.2809 192.681 61.2917 190.758 60.3582L189.129 61.9958L184.509 56.8062Z" fill="#FFBE9D"/>
<path d="M201.335 49.8524C201.383 49.8524 201.549 50.2084 201.659 50.8413C201.8 51.6855 201.735 52.5511 201.47 53.3649C201.2 54.1911 200.667 54.9056 199.951 55.398C199.421 55.7778 199.033 55.8964 199.009 55.849C198.986 55.8015 199.31 55.5879 199.8 55.1686C200.404 54.6569 200.856 53.9892 201.106 53.2383C201.659 51.4425 201.185 49.8682 201.335 49.8524Z" fill="#EB996E"/>
<path d="M193.25 56.6242C194.107 56.5213 194.923 56.2029 195.624 55.6986C196.383 55.1169 197.005 54.3739 197.443 53.5231C197.991 52.4228 198.425 51.2698 198.74 50.0818V50.0343L198.788 49.9869C199.92 49.0072 200.813 47.7813 201.399 46.4032C201.685 45.7052 201.872 44.9701 201.952 44.2198C201.983 43.9005 201.886 43.5822 201.683 43.3337C201.467 43.1378 201.184 43.0329 200.892 43.041L201.035 42.954C199.803 44.8446 198.225 46.4848 196.383 47.7876C195.855 48.1591 195.3 48.4897 194.722 48.7765C194.518 48.892 194.3 48.9798 194.073 49.0376C194.073 48.9822 194.935 48.5787 196.241 47.5898C198.004 46.2483 199.517 44.6068 200.71 42.7404L200.766 42.6534H200.861C201.067 42.6373 201.274 42.6649 201.469 42.7344C201.664 42.804 201.842 42.9138 201.992 43.0568C202.133 43.2171 202.24 43.4041 202.306 43.6066C202.373 43.8092 202.398 44.0231 202.38 44.2356C202.305 45.0354 202.11 45.8194 201.802 46.5614C201.188 48.0038 200.245 49.2826 199.049 50.2954L199.12 50.2005C198.782 51.4062 198.318 52.5729 197.736 53.6813C197.264 54.5652 196.589 55.3244 195.766 55.8964C195.233 56.2757 194.617 56.5225 193.97 56.6163C193.734 56.6718 193.488 56.6745 193.25 56.6242Z" fill="#EB996E"/>
<path d="M114.346 94.7395L152.121 78.7355L184.722 55.1449L191.32 62.154C191.32 62.154 168.473 85.9504 162.524 90.8077C156.575 95.6651 124.432 116.123 124.432 116.123L114.346 94.7395Z" fill="#FA602D"/>
<path d="M136.069 99.5731C135.104 99.351 134.094 99.4282 133.174 99.7946C132.873 99.9449 132.565 100.277 132.731 100.586C132.834 100.768 133.079 100.815 133.285 100.855C137.035 101.432 140.405 102.556 144.147 103.141L144.779 102.872C142.081 101.294 139.137 100.179 136.069 99.5731Z" fill="#FAFAFA"/>
<path d="M142.849 97.2868C143.462 99.1484 144.257 100.945 145.223 102.651L145.594 102.437C145.67 100.54 145.559 98.64 145.262 96.7647C145.039 94.9452 144.266 93.237 143.047 91.8678C142.406 93.607 142.336 95.5055 142.849 97.2868Z" fill="#FAFAFA"/>
<path d="M149.012 95.1667C148.221 97.3739 147.469 99.494 146.638 101.701L148.221 100.079C149.693 98.2325 150.868 96.1665 151.701 93.9563C151.8 93.7046 151.846 93.4353 151.836 93.1652C151.826 93.0265 151.78 92.8927 151.703 92.7775C151.625 92.6622 151.518 92.5695 151.393 92.5086C151.243 92.4701 151.087 92.4688 150.936 92.5046C150.786 92.5404 150.647 92.6124 150.531 92.7143C149.795 93.3657 149.267 94.2183 149.012 95.1667Z" fill="#FAFAFA"/>
<path d="M175.624 68.8863C176.504 68.8803 177.36 68.6041 178.077 68.0952C178.306 67.9053 178.504 67.5414 178.298 67.3041C178.223 67.2456 178.136 67.2045 178.043 67.184C177.95 67.1635 177.853 67.164 177.76 67.1854C174.398 67.486 171.25 67.2329 167.887 67.5335L167.397 67.8974C170.064 68.6891 172.846 69.0234 175.624 68.8863Z" fill="#FAFAFA"/>
<path d="M170.205 72.3276C169.29 70.847 168.23 69.4611 167.041 68.1901L166.764 68.4591C167.106 70.113 167.61 71.7293 168.267 73.2848C168.847 74.812 169.883 76.1238 171.234 77.0426C171.403 75.4014 171.043 73.7492 170.205 72.3276Z" fill="#FAFAFA"/>
<path d="M165.34 75.4762C165.554 73.4035 165.751 71.4099 165.965 69.3372L164.976 71.0618C164.102 72.9767 163.531 75.0157 163.283 77.1058C163.25 77.3523 163.269 77.6029 163.338 77.8416C163.375 77.9615 163.444 78.0691 163.537 78.1527C163.631 78.2364 163.745 78.2929 163.869 78.3162C164.005 78.317 164.141 78.2843 164.262 78.2208C164.383 78.1574 164.487 78.0652 164.565 77.9523C165.063 77.2222 165.333 76.3602 165.34 75.4762Z" fill="#FAFAFA"/>
<path d="M38.8905 260.744L10.2764 270.135L5.52979 257.967L33.7246 244.353L38.8905 260.744Z" fill="#FFBE9D"/>
<path d="M14.0895 269.003L13.2984 269.328C13.2984 269.328 13.2984 285.205 10.7827 286.392L0 259.209L9.1926 255.982C9.02804 258.376 9.38013 260.778 10.225 263.025C11.0699 265.272 12.3878 267.31 14.0895 269.003Z" fill="#FA602D"/>
<path d="M7.36513 259.89C7.18188 259.656 6.91839 259.5 6.62593 259.45C6.33347 259.4 6.03297 259.461 5.78293 259.621C5.5405 259.797 5.37609 260.061 5.32442 260.356C5.27276 260.651 5.33788 260.955 5.50604 261.203C5.70218 261.446 5.98107 261.607 6.28916 261.657C6.59724 261.707 6.91281 261.641 7.17527 261.472C7.40224 261.263 7.5403 260.975 7.56092 260.667C7.58153 260.36 7.48311 260.056 7.28602 259.819" fill="white"/>
<path d="M0 259.209L2.21509 258.418L11.7083 284.754C11.7083 284.754 11.7083 286.178 10.759 286.376L0 259.209Z" fill="#263238"/>
<path d="M13.2431 269.454C13.1086 269.502 12.7843 268.861 12.096 268.378C11.4077 267.896 10.7195 267.769 10.7195 267.627C10.7195 267.484 11.566 267.374 12.3887 267.975C13.2115 268.576 13.3776 269.43 13.2431 269.454Z" fill="#263238"/>
<path d="M13.1956 272.777C13.0769 272.856 12.626 272.373 11.8824 272.144C11.1387 271.915 10.4979 272.017 10.4505 271.883C10.403 271.748 11.1229 271.369 12.0327 271.669C12.9424 271.97 13.3222 272.721 13.1956 272.777Z" fill="#263238"/>
<path d="M10.4267 275.751C10.3476 275.641 10.941 275.19 11.8033 275.245C12.6656 275.3 13.2035 275.799 13.1086 275.902C13.0136 276.004 12.4836 275.775 11.7716 275.735C11.0596 275.696 10.49 275.878 10.4267 275.751Z" fill="#263238"/>
<path d="M115.983 195.637C115.983 195.637 95.0035 238.356 89.3708 241.639C83.7382 244.922 18.8837 268.006 18.8837 268.006L13.8918 252.596L72.5836 221.6C72.5836 221.6 80.2494 200.7 83.1053 184.822C84.8536 175.092 88.8645 169.388 94.6316 161.809C96.3958 159.491 99.3783 156.176 100.905 155.156L127.272 160.148L115.983 195.637Z" fill="#263238"/>
<path d="M134.527 161.477L106.213 156.73L100.47 190.02L106.221 259.929C106.221 259.929 102.266 284.232 102.938 300.22C103.547 315.298 104.133 320.987 104.133 320.987C104.133 320.987 116.308 321.042 119.077 321.042C120.24 321.042 130.643 245.373 130.643 245.373L134.527 161.477Z" fill="#263238"/>
<path d="M121.561 179.735C121.509 179.903 121.445 180.067 121.371 180.226C121.22 180.582 121.023 181.017 120.769 181.618L118.531 186.705C116.648 191.048 114.077 196.989 111.245 203.54C108.412 210.09 105.533 215.952 103.334 220.105C102.234 222.178 101.324 223.847 100.66 224.986L99.8685 226.292C99.789 226.449 99.6935 226.597 99.5837 226.735C99.6368 226.566 99.7084 226.405 99.7973 226.252C99.9793 225.912 100.209 225.461 100.494 224.907L103.041 219.971C105.161 215.786 107.954 209.932 110.825 203.358C113.697 196.784 116.292 190.89 118.262 186.586C119.243 184.45 120.05 182.726 120.635 181.547L121.307 180.194C121.373 180.032 121.458 179.878 121.561 179.735Z" fill="#455A64"/>
<path d="M16.9929 255.76C17.0403 255.863 16.6764 256.132 16.2018 256.369C15.7271 256.607 15.2762 256.717 15.2208 256.615C15.1654 256.512 15.5372 256.235 16.0119 255.998C16.4866 255.76 16.9375 255.673 16.9929 255.76Z" fill="#455A64"/>
<path d="M24.0732 252.351C24.1286 252.453 23.3692 252.92 22.3961 253.395C21.8289 253.744 21.1962 253.972 20.537 254.067C20.4816 253.964 21.2411 253.498 22.2142 253.023C22.7814 252.674 23.4141 252.445 24.0732 252.351Z" fill="#455A64"/>
<path d="M31.1536 248.901C31.2089 249.004 30.4495 249.471 29.4764 249.954C28.9086 250.303 28.2764 250.534 27.6173 250.634C27.562 250.531 28.3214 250.056 29.2945 249.582C29.8624 249.233 30.4946 249.001 31.1536 248.901Z" fill="#455A64"/>
<path d="M38.2102 245.476C37.1655 246.291 35.9646 246.884 34.6819 247.216C35.7191 246.389 36.9226 245.796 38.2102 245.476Z" fill="#455A64"/>
<path d="M45.2511 241.932C45.3064 242.035 44.5549 242.509 43.5818 243C43.0184 243.354 42.3883 243.588 41.7307 243.688C41.6753 243.585 42.4268 243.111 43.3999 242.628C43.964 242.274 44.5935 242.037 45.2511 241.932Z" fill="#455A64"/>
<path d="M52.284 238.396C52.3394 238.498 51.5878 238.973 50.6227 239.464C50.0606 239.823 49.4304 240.063 48.7715 240.168C49.2483 239.704 49.8132 239.341 50.4328 239.1C50.9955 238.741 51.6254 238.502 52.284 238.396Z" fill="#455A64"/>
<path d="M59.3327 234.796C58.3043 235.639 57.1103 236.256 55.8281 236.608C56.2987 236.134 56.8614 235.763 57.4815 235.516C58.0448 235.156 58.674 234.911 59.3327 234.796Z" fill="#455A64"/>
<path d="M66.2468 231.117C66.3021 231.22 65.5664 231.711 64.6092 232.225C64.0583 232.597 63.4359 232.85 62.7817 232.969C63.2484 232.494 63.8052 232.118 64.4193 231.861C64.9702 231.489 65.5926 231.236 66.2468 231.117Z" fill="#455A64"/>
<path d="M73.1057 227.281C73.1611 227.376 72.4491 227.898 71.5235 228.443C70.9819 228.831 70.3646 229.101 69.7119 229.235C70.1581 228.747 70.6957 228.352 71.2941 228.072C71.8346 227.682 72.4523 227.412 73.1057 227.281Z" fill="#455A64"/>
<path d="M77.3855 221.395C77.4581 222.052 77.4125 222.716 77.251 223.357C77.2119 223.6 77.1855 223.846 77.1719 224.092C77.1685 224.145 77.1685 224.198 77.1719 224.251C77.1783 224.337 77.156 224.423 77.1086 224.496C77.0495 224.592 76.9776 224.68 76.895 224.757C76.6102 225.01 76.4045 225.089 76.365 225.05C76.3254 225.01 76.4757 224.836 76.6735 224.559C76.726 224.495 76.7686 224.423 76.8001 224.346C76.8044 224.325 76.8044 224.303 76.8001 224.282C76.7902 224.222 76.7902 224.161 76.8001 224.1C76.7766 223.837 76.7766 223.572 76.8001 223.309C76.8444 222.634 77.0448 221.979 77.3855 221.395Z" fill="#455A64"/>
<path d="M79.2129 213.737C79.2546 214.403 79.1604 215.07 78.936 215.699C78.8395 216.359 78.6079 216.992 78.2557 217.558C78.2147 216.892 78.3089 216.225 78.5326 215.596C78.6332 214.937 78.8645 214.305 79.2129 213.737Z" fill="#455A64"/>
<path d="M81.2304 206.134C81.1533 207.457 80.806 208.749 80.2099 209.932C80.1743 209.266 80.2795 208.6 80.5184 207.978C80.6278 207.321 80.8701 206.694 81.2304 206.134Z" fill="#455A64"/>
<path d="M83.3424 198.548C83.2603 199.872 82.8962 201.164 82.2744 202.337C82.2503 201.672 82.3634 201.01 82.6067 200.391C82.7242 199.733 82.9745 199.106 83.3424 198.548Z" fill="#455A64"/>
<path d="M85.5259 190.985C85.5438 191.651 85.4226 192.314 85.1699 192.931C85.0488 193.587 84.7958 194.211 84.4263 194.766C84.518 193.442 84.893 192.152 85.5259 190.985Z" fill="#455A64"/>
<path d="M87.8123 183.446C87.6932 184.767 87.2998 186.05 86.6573 187.211C86.6496 186.543 86.7789 185.881 87.037 185.265C87.1669 184.612 87.4308 183.992 87.8123 183.446Z" fill="#455A64"/>
<path d="M90.4387 176.033C90.3316 176.685 90.1401 177.321 89.8691 177.924C89.7073 178.568 89.4137 179.171 89.0068 179.696C89.0382 179.027 89.2023 178.371 89.4894 177.766C89.6373 177.11 89.9662 176.51 90.4387 176.033Z" fill="#455A64"/>
<path d="M94.6789 169.404C94.4919 170.045 94.174 170.64 93.7454 171.152C93.1363 172.046 92.5588 172.734 92.4639 172.663C92.6535 172.021 92.9741 171.426 93.4053 170.915C94.0144 170.021 94.5919 169.34 94.6789 169.404Z" fill="#455A64"/>
<path d="M99.3148 163.043C99.4097 163.114 98.9588 163.834 98.3101 164.744C97.6614 165.654 97.0681 166.271 96.9731 166.208C97.1887 165.576 97.5305 164.994 97.9778 164.499C98.6265 163.629 99.2278 162.972 99.3148 163.043Z" fill="#455A64"/>
<path d="M102.914 158.336C103.001 158.407 102.804 158.811 102.471 159.246C102.139 159.681 101.799 159.966 101.68 159.902C101.562 159.839 101.791 159.428 102.123 158.993C102.456 158.558 102.843 158.265 102.914 158.336Z" fill="#455A64"/>
<path d="M106.261 216.862C106.15 216.862 106.024 216.442 105.984 215.897C105.944 215.351 105.984 214.9 106.111 214.892C106.237 214.884 106.348 215.319 106.387 215.865C106.427 216.411 106.38 216.854 106.261 216.862Z" fill="#455A64"/>
<path d="M106.878 225.034C106.63 224.388 106.509 223.7 106.522 223.009C106.399 222.326 106.418 221.626 106.577 220.952C106.825 221.598 106.946 222.285 106.933 222.977C107.051 223.659 107.033 224.359 106.878 225.034Z" fill="#455A64"/>
<path d="M107.424 233.214C107.175 232.566 107.06 231.874 107.083 231.181C106.975 230.496 107.002 229.798 107.163 229.124C107.404 229.774 107.517 230.464 107.495 231.157C107.603 231.841 107.579 232.539 107.424 233.214Z" fill="#455A64"/>
<path d="M107.819 241.386C107.586 240.735 107.486 240.043 107.527 239.353C107.424 238.666 107.464 237.966 107.645 237.296C107.977 238.634 108.036 240.025 107.819 241.386Z" fill="#455A64"/>
<path d="M108.009 249.574C107.797 248.913 107.717 248.217 107.772 247.525C107.694 246.837 107.753 246.141 107.946 245.476C108.241 246.824 108.263 248.217 108.009 249.574Z" fill="#455A64"/>
<path d="M107.954 257.762C107.765 257.093 107.706 256.395 107.78 255.705C107.721 255.015 107.801 254.321 108.017 253.664C108.207 254.329 108.266 255.025 108.191 255.713C108.251 256.405 108.17 257.102 107.954 257.762Z" fill="#455A64"/>
<path d="M107.629 265.95C107.459 265.278 107.424 264.578 107.527 263.893C107.492 263.199 107.594 262.506 107.827 261.852C107.999 262.523 108.036 263.222 107.938 263.908C107.968 264.602 107.863 265.296 107.629 265.95Z" fill="#455A64"/>
<path d="M107.052 274.122C106.884 272.751 106.989 271.361 107.36 270.032C107.519 270.706 107.538 271.406 107.416 272.089C107.427 272.783 107.304 273.474 107.052 274.122Z" fill="#455A64"/>
<path d="M106.363 282.278C106.225 281.599 106.225 280.9 106.363 280.221C106.356 279.53 106.485 278.845 106.743 278.204C106.877 278.883 106.877 279.581 106.743 280.261C106.751 280.952 106.622 281.637 106.363 282.278Z" fill="#455A64"/>
<path d="M105.715 290.45C105.566 289.774 105.55 289.075 105.667 288.393C105.651 287.699 105.772 287.008 106.023 286.36C106.172 287.038 106.191 287.739 106.079 288.425C106.094 289.117 105.971 289.806 105.715 290.45Z" fill="#455A64"/>
<path d="M105.272 298.63C105.105 297.958 105.067 297.26 105.161 296.573C105.129 295.882 105.231 295.192 105.462 294.54C105.634 295.209 105.671 295.905 105.572 296.589C105.612 297.283 105.51 297.977 105.272 298.63Z" fill="#455A64"/>
<path d="M105.216 306.826C105.006 306.165 104.934 305.467 105.003 304.777C104.933 304.085 104.997 303.387 105.193 302.72C105.402 303.382 105.477 304.078 105.414 304.769C105.478 305.461 105.411 306.159 105.216 306.826Z" fill="#455A64"/>
<path d="M105.652 314.998C105.401 314.353 105.28 313.665 105.296 312.973C105.172 312.291 105.191 311.59 105.351 310.916C105.724 312.243 105.826 313.631 105.652 314.998Z" fill="#455A64"/>
<path d="M106.427 321.042C106.316 321.042 106.158 320.638 106.079 320.093C106 319.547 106.015 319.104 106.134 319.088C106.253 319.072 106.403 319.499 106.482 320.037C106.561 320.575 106.538 321.026 106.427 321.042Z" fill="#455A64"/>
<path d="M115.066 161.619C114.961 161.902 114.817 162.168 114.638 162.41C114.207 163.108 113.736 163.782 113.23 164.428C111.586 166.615 109.475 168.409 107.052 169.68C104.582 170.927 101.762 171.298 99.0538 170.733C98.2436 170.555 97.463 170.262 96.7358 169.862C96.4631 169.733 96.2123 169.563 95.9922 169.356C96.9894 169.836 98.0377 170.203 99.117 170.448C101.757 170.914 104.476 170.514 106.87 169.309C109.238 168.057 111.324 166.334 113.001 164.246C114.322 162.679 115.01 161.619 115.066 161.619Z" fill="#455A64"/>
<path d="M129.195 162.125C129.169 162.891 129.052 163.65 128.847 164.388C128.432 166.191 127.866 167.957 127.154 169.665C126.439 171.373 125.579 173.017 124.583 174.577C124.2 175.243 123.741 175.862 123.214 176.421C123.541 175.732 123.914 175.066 124.33 174.427C126.171 171.254 127.593 167.855 128.562 164.317C128.727 163.574 128.938 162.842 129.195 162.125Z" fill="#455A64"/>
<path d="M125.785 162.79C125.785 162.853 125.406 162.885 125.144 163.352C125.078 163.471 125.036 163.603 125.023 163.739C125.009 163.875 125.024 164.013 125.065 164.143C125.141 164.287 125.255 164.408 125.394 164.492C125.534 164.576 125.694 164.62 125.856 164.62C126.019 164.62 126.179 164.576 126.319 164.492C126.458 164.408 126.572 164.287 126.648 164.143C126.687 164.012 126.7 163.874 126.685 163.738C126.67 163.602 126.628 163.471 126.561 163.352C126.299 162.893 125.904 162.861 125.92 162.798C125.936 162.735 126.015 162.743 126.189 162.798C126.437 162.862 126.655 163.01 126.806 163.217C126.923 163.374 127.002 163.555 127.038 163.747C127.073 163.939 127.064 164.137 127.011 164.325C126.915 164.553 126.754 164.747 126.548 164.884C126.342 165.021 126.1 165.094 125.853 165.094C125.605 165.094 125.363 165.021 125.157 164.884C124.951 164.747 124.79 164.553 124.694 164.325C124.639 164.137 124.629 163.939 124.665 163.747C124.7 163.554 124.781 163.373 124.899 163.217C125.046 163.007 125.261 162.856 125.508 162.79C125.714 162.735 125.785 162.766 125.785 162.79Z" fill="#455A64"/>
<path d="M86.6097 59.7253C84.0352 58.4578 81.0635 58.2614 78.3446 59.1791C75.6256 60.0968 73.3808 62.0538 72.1009 64.6222C70.8431 67.1617 70.5187 70.2311 68.6438 72.3355C66.943 74.2104 64.3402 74.8986 61.9432 75.7135C59.5462 76.5283 56.9988 77.7783 56.0574 80.1357C55.2663 82.1451 55.7963 84.6134 54.5701 86.3934C53.3439 88.1733 50.7966 88.5135 48.5973 88.6559C48.7183 89.1488 48.9941 89.59 49.3842 89.9146C49.7743 90.2392 50.2582 90.4302 50.7649 90.4596C49.1564 91.3881 47.2965 91.7867 45.4487 91.5988C46.0341 94.2727 48.3916 96.29 50.9864 97.1365C53.5813 97.983 56.3818 97.9751 59.1111 97.801C62.2043 97.6112 65.5111 97.1761 67.8132 95.1113C70.5899 92.6272 71.468 88.1338 74.8777 86.6149C76.6181 85.8238 78.6829 86.0453 80.4154 85.2383C82.7887 84.1308 83.9754 81.3619 84.2364 78.7434C84.4975 76.1249 84.0703 73.4826 84.2364 70.8324C84.4026 68.1822 85.4468 65.4133 87.7331 64.1159L86.6097 59.7253Z" fill="#263238"/>
<path d="M87.2109 58.95C87.4403 58.4437 86.8549 57.8662 86.2932 57.89C85.7367 57.9861 85.2367 58.2883 84.893 58.7364C83.4801 60.1903 82.5635 62.054 82.2744 64.0606C82.1396 65.0643 82.2371 66.0856 82.5595 67.0458C82.8818 68.0059 83.4203 68.8792 84.1335 69.5983C84.438 69.9425 84.8625 70.1576 85.3202 70.1995C85.5591 70.1838 85.7904 70.1091 85.9933 69.9821C86.1963 69.8551 86.3646 69.6797 86.4831 69.4717C86.716 69.0548 86.8714 68.5991 86.9419 68.1268C87.5596 65.0747 87.7882 61.9567 87.6223 58.8472L87.2109 58.95Z" fill="#FF725E"/>
<path d="M84.8059 69.5429C84.8059 63.8865 85.7157 57.8821 89.3627 53.5706C92.6141 49.7337 98.1122 47.2418 103.08 46.4506C105.708 46.1782 108.364 46.4916 110.857 47.3683C114.092 48.4126 115.999 51.4821 118.024 54.2193C122.075 59.6937 123.404 67.9607 121.98 70.6267L99.4413 89.1859C94.4811 87.7778 88.9513 85.6102 86.7837 80.9427C85.2647 77.7624 84.8217 73.0158 84.8059 69.5429Z" fill="#263238"/>
<path d="M92.3689 58.4754L107.321 50.4932C112.289 48.6895 117.241 54.1402 118.831 59.1953C120.603 64.7963 122.542 71.7105 122.921 76.1328C123.712 85.0089 117.384 87.7145 117.384 87.7145L120.437 97.7457L123.942 108.9L101.245 95.4515L90.4149 62.1857C90.217 61.4349 90.308 60.6372 90.6698 59.9502C91.0316 59.2632 91.6379 58.737 92.3689 58.4754Z" fill="#FFBE9D"/>
<path d="M118.594 64.9862C118.669 65.2725 118.628 65.5769 118.48 65.8332C118.332 66.0895 118.088 66.2769 117.803 66.3548C117.666 66.4011 117.522 66.4194 117.378 66.4084C117.234 66.3974 117.094 66.3575 116.966 66.291C116.839 66.2244 116.726 66.1327 116.634 66.0213C116.543 65.9099 116.475 65.7812 116.434 65.6428C116.361 65.3565 116.403 65.0531 116.551 64.7974C116.699 64.5416 116.941 64.3539 117.225 64.2742C117.362 64.229 117.506 64.2116 117.649 64.2231C117.793 64.2346 117.932 64.2747 118.06 64.3411C118.188 64.4075 118.301 64.4988 118.392 64.6096C118.484 64.7204 118.553 64.8484 118.594 64.9862Z" fill="#263238"/>
<path d="M118.032 62.2094C117.953 62.3993 116.933 62.1066 115.794 62.5337C114.654 62.9609 114.029 63.8391 113.855 63.7441C113.681 63.6492 113.855 63.404 114.077 63.0005C114.446 62.4794 114.965 62.0822 115.564 61.8613C116.157 61.6374 116.806 61.6097 117.415 61.7822C117.874 61.9404 118.072 62.1303 118.032 62.2094Z" fill="#263238"/>
<path d="M107.835 68.1268C107.908 68.4131 107.866 68.7165 107.718 68.9722C107.57 69.228 107.328 69.4158 107.044 69.4954C106.907 69.5408 106.762 69.5582 106.618 69.5468C106.474 69.5354 106.334 69.4954 106.206 69.429C106.078 69.3627 105.964 69.2715 105.871 69.1606C105.779 69.0497 105.71 68.9215 105.667 68.7834C105.594 68.4972 105.636 68.1938 105.784 67.9381C105.932 67.6823 106.174 67.4945 106.458 67.4148C106.596 67.3706 106.74 67.354 106.884 67.3659C107.027 67.3778 107.167 67.418 107.295 67.4842C107.423 67.5504 107.536 67.6413 107.629 67.7516C107.722 67.8619 107.792 67.9894 107.835 68.1268Z" fill="#263238"/>
<path d="M106.743 65.6744C106.648 65.8485 105.659 65.445 104.489 65.7377C103.318 66.0304 102.59 66.8373 102.424 66.7187C102.258 66.6 102.424 66.3785 102.732 66.0146C103.147 65.5371 103.7 65.2 104.315 65.0494C104.927 64.8927 105.573 64.9371 106.158 65.176C106.609 65.3659 106.799 65.5953 106.743 65.6744Z" fill="#263238"/>
<path d="M113.128 73.9573C113.702 73.6198 114.316 73.3541 114.955 73.1662C115.256 73.0554 115.525 72.9288 115.525 72.7073C115.473 72.39 115.324 72.0966 115.097 71.8688C114.639 71.2042 114.148 70.516 113.642 69.7961C111.601 66.8373 110.042 64.3691 110.161 64.2584C110.28 64.1476 112.036 66.513 114.077 69.4717L115.501 71.5602C115.779 71.8788 115.939 72.2843 115.952 72.7073C115.933 72.8239 115.889 72.9349 115.822 73.0321C115.755 73.1293 115.667 73.2103 115.564 73.269C115.41 73.3551 115.245 73.4216 115.074 73.4668C114.448 73.7122 113.794 73.8771 113.128 73.9573Z" fill="#263238"/>
<path d="M117.4 87.7066C113.397 88.7623 109.18 88.6883 105.217 87.493C105.217 87.493 109.694 92.7063 118.048 89.7872L117.4 87.7066Z" fill="#EB996E"/>
<path d="M109.781 77.1217C109.887 76.8169 110.066 76.5431 110.304 76.3249C110.541 76.1067 110.829 75.951 111.142 75.8717C111.573 75.7332 112.034 75.7122 112.476 75.8109C112.918 75.9096 113.326 76.1245 113.657 76.4334C113.913 76.7323 114.049 77.1159 114.037 77.5093C113.998 77.7229 114.037 77.6122 113.926 77.7783C113.561 78.4026 113.048 78.9271 112.431 79.3051C112.094 79.4842 111.71 79.5574 111.331 79.5151C110.951 79.4727 110.593 79.3168 110.303 79.0678C110.045 78.8229 109.86 78.5117 109.768 78.1683C109.676 77.8249 109.68 77.4627 109.781 77.1217Z" fill="#EB996E"/>
<path d="M109.86 75.6344C110.05 75.5711 110.366 76.8527 111.688 77.4935C113.009 78.1343 114.338 77.6517 114.393 77.8257C114.449 77.9998 114.148 78.1501 113.602 78.3083C112.855 78.504 112.062 78.4312 111.363 78.1026C110.694 77.7819 110.176 77.215 109.916 76.5204C109.71 75.9983 109.773 75.6502 109.86 75.6344Z" fill="#263238"/>
<path d="M106.387 62.7315C106.387 63.0875 105.137 63.222 103.793 63.7362C102.448 64.2504 101.419 64.8991 101.174 64.6539C101.055 64.5352 101.174 64.1872 101.554 63.7679C102.053 63.2306 102.675 62.8209 103.365 62.5733C104.054 62.3159 104.794 62.2238 105.525 62.3043C106.079 62.4072 106.403 62.597 106.387 62.7315Z" fill="#263238"/>
<path d="M116.782 59.219C116.64 59.5355 115.762 59.4564 114.781 59.6858C113.8 59.9152 113.025 60.3108 112.764 60.0813C112.645 59.9627 112.708 59.6621 113.009 59.2902C113.412 58.8597 113.941 58.5665 114.52 58.4517C115.095 58.3153 115.699 58.3652 116.244 58.5941C116.664 58.8156 116.846 59.0608 116.782 59.219Z" fill="#263238"/>
<path d="M95.2407 72.0507C95.1062 72.0507 90.1065 71.6631 91.2852 76.4334C92.4639 81.2038 97.0128 79.0203 96.989 78.8858C96.9653 78.7513 95.2407 72.0507 95.2407 72.0507Z" fill="#FFBE9D"/>
<path d="M95.0984 77.4381C95.0984 77.4381 95.0272 77.5172 94.9006 77.6201C94.7245 77.7539 94.503 77.8136 94.2835 77.7862C93.7377 77.7308 93.1127 77.0346 92.8754 76.204C92.7611 75.7973 92.7394 75.3702 92.8121 74.9541C92.8194 74.7941 92.8658 74.6384 92.9471 74.5005C93.0285 74.3626 93.1424 74.2467 93.2788 74.1629C93.3679 74.1153 93.4706 74.0995 93.5699 74.1182C93.6692 74.1369 93.7591 74.189 93.8247 74.2658C93.9196 74.3845 93.9117 74.4873 93.9434 74.4873C93.975 74.4873 94.0225 74.3845 93.9434 74.1946C93.8854 74.0866 93.7938 74.0004 93.6823 73.9493C93.6049 73.9158 93.5214 73.8985 93.4371 73.8985C93.3527 73.8985 93.2692 73.9158 93.1918 73.9493C93.0051 74.0362 92.8442 74.1701 92.7249 74.3379C92.6056 74.5057 92.5321 74.7017 92.5115 74.9066C92.3979 75.3664 92.3979 75.847 92.5115 76.3068C92.5959 76.7361 92.8043 77.1311 93.1108 77.4432C93.4173 77.7553 93.8085 77.9708 94.2361 78.0631C94.3731 78.0665 94.5092 78.04 94.6349 77.9853C94.7607 77.9306 94.8729 77.8492 94.9639 77.7466C95.1142 77.5568 95.1142 77.446 95.0984 77.4381Z" fill="#EB996E"/>
<path d="M93.8958 79.4079C93.8958 79.4079 93.7375 79.6611 93.8958 80.0804C93.9305 80.2096 93.9932 80.3297 94.0793 80.4322C94.1654 80.5347 94.2728 80.6171 94.3942 80.6737C94.5511 80.724 94.7177 80.7359 94.8802 80.7084C95.0426 80.6808 95.1961 80.6147 95.3277 80.5155C95.4656 80.4326 95.581 80.3171 95.6638 80.1792C95.7466 80.0412 95.7941 79.885 95.8023 79.7244C95.7943 79.4586 95.6838 79.2063 95.4938 79.0203C95.1694 78.7117 94.8609 78.7513 94.8688 78.775C94.8767 78.7988 95.122 78.8462 95.3672 79.139C95.5005 79.3049 95.5731 79.5115 95.5729 79.7244C95.5612 79.8494 95.52 79.9698 95.4526 80.0757C95.3852 80.1817 95.2936 80.27 95.1853 80.3335C95.0855 80.4104 94.9697 80.4639 94.8464 80.4899C94.7231 80.5159 94.5956 80.5139 94.4733 80.4838C94.2829 80.3964 94.135 80.2371 94.0619 80.0408C93.982 79.8371 93.9262 79.6247 93.8958 79.4079Z" fill="#FAFAFA"/>
<path d="M119.266 59.2744C118.221 58.0987 116.84 57.2707 115.311 56.9011C113.808 56.466 112.233 56.2603 110.73 55.8094C107.242 54.7541 104.268 52.4428 102.384 49.3223C103.444 48.4622 104.687 47.8583 106.018 47.5577C107.349 47.2572 108.732 47.2682 110.058 47.5898C112.719 48.2626 115.068 49.8295 116.711 52.0279C118.343 54.2201 119.476 56.7416 120.034 59.4168" fill="#263238"/>
<path d="M91.0161 57.0514C93.7375 52.8507 99.9634 49.3936 104.947 49.8603C105.232 54.0453 103.286 59.2903 101.356 63.0163C99.4255 66.7424 99.1011 72.5887 92.8119 72.1456C92.3768 72.1456 92.0208 72.5966 91.5857 72.47C91.2412 72.3212 90.9608 72.0549 90.7946 71.7185C89.4812 69.4891 88.807 66.9411 88.8461 64.3538C88.8852 61.7666 89.6359 59.2401 91.0161 57.0514Z" fill="#263238"/>
<path d="M104.853 50.1768C104.872 50.5445 104.851 50.9133 104.789 51.2764C104.71 51.9805 104.599 52.9931 104.425 54.2509C104.015 57.5346 103.303 60.7734 102.297 63.9261C101.72 65.6606 100.981 67.3371 100.09 68.9338C99.466 70.3229 98.4377 71.4918 97.1394 72.288C96.6796 72.5346 96.1659 72.6636 95.6442 72.6636C95.1225 72.6636 94.6088 72.5346 94.149 72.288C93.9053 72.1512 93.6925 71.9653 93.5241 71.7422C93.4133 71.584 93.3738 71.489 93.3896 71.4811C93.8246 71.9926 94.4285 72.3312 95.0917 72.4357C95.755 72.5402 96.4337 72.4036 97.0049 72.0507C98.2211 71.246 99.1775 70.1055 99.7579 68.7676C100.617 67.1795 101.337 65.5199 101.91 63.8074C102.9 60.6737 103.645 57.4681 104.141 54.2193C104.331 53.0326 104.497 52.0438 104.631 51.2685C104.673 50.8988 104.747 50.5334 104.853 50.1768Z" fill="#263238"/>
<path d="M52.6558 84.3286C52.5952 84.1714 52.5579 84.0061 52.545 83.8381C52.4946 83.3597 52.5213 82.8762 52.6242 82.4062C52.7917 81.655 53.1181 80.9482 53.5814 80.3335C54.1915 79.507 55.0303 78.8773 55.9942 78.5219C57.187 78.1694 58.4563 78.1694 59.6491 78.5219C60.9363 78.9285 62.3175 78.9285 63.6046 78.5219C64.9789 77.9095 66.0975 76.8384 66.769 75.492C67.5058 74.0443 67.9799 72.4774 68.1693 70.8641C68.3759 69.2228 68.693 67.5973 69.1186 65.9988C69.568 64.5033 70.3162 63.1146 71.3179 61.9167C72.7313 60.2115 74.6102 58.9543 76.7257 58.2984C78.8411 57.6424 81.1017 57.6159 83.2319 58.2223C83.6907 58.3552 84.14 58.5191 84.5767 58.7127C84.7321 58.7765 84.8806 58.8561 85.0197 58.9501C85.0197 58.9896 84.3869 58.6732 83.1844 58.3805C81.5003 57.9584 79.7429 57.9205 78.0422 58.2697C75.5135 58.7863 73.2413 60.1614 71.6106 62.1619C70.6496 63.3263 69.9314 64.6712 69.4983 66.1175C69.089 67.7019 68.7824 69.3112 68.5807 70.9353C68.3812 72.5914 67.8883 74.1987 67.125 75.6819C66.4048 77.0943 65.2163 78.2128 63.7629 78.8463C63.0672 79.1108 62.3211 79.2163 61.5794 79.1548C60.9022 79.0904 60.2307 78.9767 59.57 78.8146C58.4379 78.4552 57.2257 78.4332 56.0813 78.7513C55.1604 79.0742 54.3526 79.6567 53.7554 80.4285C53.2979 81.0086 52.9641 81.6763 52.7745 82.3904C52.6233 83.0248 52.5832 83.6805 52.6558 84.3286Z" fill="#263238"/>
<path d="M86.0481 57.8425C86.1359 57.5845 86.2583 57.3397 86.412 57.1147C86.8057 56.4774 87.2818 55.8948 87.8281 55.3822C89.6567 53.6972 91.9201 52.5573 94.3626 52.0912C96.7815 51.6507 99.2508 51.5574 101.696 51.8143C102.63 51.9013 103.381 51.9884 103.903 52.0675C104.173 52.0822 104.44 52.1355 104.694 52.2257C103.683 52.2403 102.672 52.2007 101.664 52.107C99.2474 51.9379 96.8188 52.0681 94.4338 52.4947C92.0614 52.9515 89.8497 54.0206 88.0179 55.5958C87.299 56.2877 86.64 57.0393 86.0481 57.8425Z" fill="#455A64"/>
<path d="M92.6221 50.4299C93.2063 50.1097 93.8358 49.8803 94.4891 49.7495C96.0395 49.3465 97.6338 49.1366 99.2357 49.1246C100.121 49.1111 101.005 49.1773 101.878 49.3223C102.624 49.4371 103.309 49.7993 103.824 50.3508C104.171 50.7268 104.371 51.2157 104.386 51.7273C104.386 52.0833 104.275 52.2652 104.259 52.2573C104.243 52.2494 104.259 52.0595 104.259 51.7352C104.185 51.2841 103.969 50.8685 103.642 50.5485C103.149 50.0766 102.516 49.7769 101.838 49.6941C100.987 49.5726 100.127 49.5223 99.2673 49.5438C97.6966 49.554 96.1306 49.7182 94.5919 50.0343C93.9426 50.2004 93.2851 50.3324 92.6221 50.4299Z" fill="#455A64"/>
<path d="M84.0862 76.9714C84.0216 76.8725 83.976 76.7625 83.9517 76.647C83.8378 76.3358 83.7633 76.0116 83.7302 75.6819C83.6107 74.4494 83.8468 73.2085 84.4106 72.1061C85.2243 70.469 86.4514 69.0728 87.9705 68.0556C89.8222 66.8665 91.7368 65.7785 93.706 64.7963C97.185 62.8794 100.126 60.1181 102.258 56.7666C102.908 55.7572 103.479 54.6993 103.967 53.6022C104.125 53.1887 104.313 52.7868 104.528 52.3997C104.514 52.5138 104.485 52.6255 104.441 52.732C104.37 52.9456 104.283 53.27 104.117 53.6655C103.685 54.7981 103.155 55.8913 102.535 56.9328C100.435 60.3834 97.4674 63.223 93.9275 65.1681C91.9713 66.1256 90.0649 67.1817 88.2158 68.3325C86.734 69.3036 85.5228 70.6346 84.6954 72.201C84.1279 73.2536 83.8546 74.4396 83.9043 75.6344C83.9517 76.5362 84.1337 76.9714 84.0862 76.9714Z" fill="#455A64"/>
<path d="M102.843 108.892C102.78 108.892 102.788 108.101 102.566 106.804C102.284 105.135 101.711 103.528 100.873 102.057C100.121 100.553 98.9146 99.3237 97.4241 98.5447C96.7789 98.2971 96.0892 98.1866 95.3989 98.2203C95.5713 98.1256 95.764 98.074 95.9606 98.07C96.4981 98.0163 97.0407 98.0922 97.5428 98.2915C99.1457 99.021 100.448 100.281 101.229 101.859C102.092 103.362 102.646 105.021 102.859 106.74C102.982 107.453 102.977 108.182 102.843 108.892Z" fill="#263238"/>
<path d="M105.596 95.0876L124.322 109.406L118.95 92.7934L123.491 95.1192C123.491 95.1192 131.592 110.103 134.171 117.642C135.174 120.57 135.92 123.579 136.402 126.637C137.003 132.056 133.981 138.116 133.981 138.116L136.568 157.664C136.932 159.768 135.563 161.801 134.638 161.801L105.311 157.846C101.49 157.094 99.9241 155.093 100.153 152.878L100.597 148.78L88.0655 106.851C87.3297 109.335 86.5624 100.823 92.1555 98.7741C94.5209 97.8801 101.997 94.3756 105.596 95.0876Z" fill="#FA602D"/>
<path d="M126.576 103.244C126.576 103.244 126.671 103.339 126.814 103.544L127.423 104.438C127.945 105.229 128.688 106.353 129.567 107.785C131.945 111.472 133.859 115.439 135.262 119.596C136.654 123.795 136.956 128.278 136.141 132.625C135.878 133.934 135.467 135.208 134.914 136.423C134.732 136.858 134.535 137.166 134.424 137.388C134.371 137.501 134.305 137.607 134.226 137.704C134.226 137.704 134.424 137.222 134.772 136.359C135.262 135.135 135.63 133.866 135.872 132.57C136.593 128.261 136.256 123.841 134.891 119.691C133.495 115.566 131.637 111.611 129.353 107.903L127.32 104.494L126.766 103.56C126.691 103.463 126.627 103.356 126.576 103.244Z" fill="#263238"/>
<path d="M129.543 154.8C129.004 155.644 128.729 156.63 128.752 157.632C128.791 157.972 129.005 158.423 129.345 158.336C129.559 158.336 129.693 158.091 129.796 157.901C131.671 154.531 133.443 151.659 135.334 148.289L135.247 147.625C132.942 149.666 131.012 152.094 129.543 154.8Z" fill="#FAFAFA"/>
<path d="M129.052 146.77C131.06 146.887 133.074 146.802 135.065 146.517L135.017 146.177C133.208 145.379 131.327 144.754 129.4 144.31C127.588 143.884 125.689 144.022 123.958 144.705C125.393 145.917 127.178 146.641 129.052 146.77Z" fill="#FAFAFA"/>
<path d="M129.203 140.149L134.843 144.895L133.601 142.633C132.354 140.582 130.796 138.737 128.981 137.166C128.769 136.974 128.518 136.831 128.245 136.747C128.109 136.704 127.963 136.699 127.823 136.732C127.684 136.766 127.557 136.836 127.454 136.937C127.365 137.067 127.309 137.218 127.291 137.375C127.273 137.532 127.294 137.691 127.351 137.839C127.727 138.774 128.371 139.578 129.203 140.149Z" fill="#FAFAFA"/>
<path d="M112.676 134.279C114.259 135.315 115.841 135.647 117.542 136.328H117.874C116.762 134.851 115.503 133.491 114.116 132.269C112.713 131.044 110.968 130.276 109.116 130.07C109.819 131.82 111.067 133.296 112.676 134.279Z" fill="#FAFAFA"/>
<path d="M116.83 129.548C117.724 131.755 118.594 133.859 119.488 136.074L119.559 133.796C119.411 131.403 118.896 129.047 118.032 126.811C117.929 126.547 117.776 126.305 117.582 126.099C117.479 125.998 117.352 125.928 117.212 125.894C117.073 125.861 116.927 125.866 116.79 125.909C116.652 125.981 116.534 126.085 116.445 126.213C116.357 126.342 116.302 126.49 116.284 126.645C116.177 127.645 116.367 128.655 116.83 129.548Z" fill="#FAFAFA"/>
<path d="M127.921 127.388C127.9 127.606 127.847 127.819 127.763 128.021C127.696 128.263 127.608 128.498 127.502 128.725C127.378 129.035 127.238 129.339 127.082 129.635C126.672 130.408 126.187 131.139 125.635 131.818C124.271 133.479 122.541 134.801 120.58 135.679C119.78 136.025 118.948 136.29 118.096 136.47C117.524 136.604 116.941 136.683 116.355 136.707C116.143 136.74 115.927 136.74 115.714 136.707C115.714 136.628 116.624 136.589 118.032 136.217C118.848 135.995 119.642 135.701 120.406 135.339C121.342 134.897 122.235 134.367 123.072 133.757C123.894 133.115 124.652 132.394 125.334 131.605C125.886 130.955 126.381 130.259 126.814 129.524C127.565 128.235 127.85 127.365 127.921 127.388Z" fill="#263238"/>
<g opacity="0.3">
<path opacity="0.3" d="M113.918 137C115.205 137.912 116.738 138.413 118.315 138.438C119.892 138.464 121.439 138.012 122.755 137.142C125.571 135.378 126.94 132.333 127.304 129.231C125.914 131.555 123.956 133.486 121.615 134.845C119.274 136.204 116.625 136.946 113.918 137Z" fill="black"/>
</g>
<g opacity="0.3">
<path opacity="0.3" d="M96.5619 118.298L93.002 123.362C93.7456 126.17 94.7266 128.812 95.4702 131.613C97.091 127.368 97.4697 122.75 96.5619 118.298Z" fill="black"/>
</g>
<path d="M45.0375 177.789L39.9191 185.922L28.5826 189.308C28.5426 188.929 28.5794 188.546 28.6909 188.182C28.8024 187.817 28.9862 187.479 29.2313 187.188C30.0224 186.46 26.858 187.488 26.858 187.488L24.4847 192.425C24.4847 192.425 22.9025 192.314 22.9895 190.929C23.0766 189.545 24.8724 185.194 24.8724 185.194L25.7188 185.052C25.5884 184.673 25.5498 184.269 25.6062 183.873C25.6626 183.477 25.8124 183.1 26.0432 182.773C26.1297 181.412 26.5716 180.097 27.3248 178.96C27.958 177.931 28.742 177.003 29.6506 176.207L39.5552 172.125L45.0375 177.789Z" fill="#FFBE9D"/>
<path d="M37.1027 184.086C35.9646 184.862 34.7237 185.474 33.4162 185.906C32.1551 186.451 30.8236 186.816 29.4607 186.99C29.4607 186.887 31.1932 186.365 33.2975 185.566C35.4019 184.767 37.0553 183.992 37.1027 184.086Z" fill="#EB996E"/>
<path d="M30.8528 183.074C29.937 183.612 28.963 184.045 27.9495 184.363C26.982 184.795 25.968 185.113 24.9275 185.313C25.839 184.771 26.8108 184.339 27.8229 184.023C28.7933 183.592 29.8099 183.274 30.8528 183.074Z" fill="#EB996E"/>
<path d="M30.663 180.606C29.9098 181.01 29.1332 181.369 28.3372 181.681C27.5958 182.109 26.8297 182.492 26.043 182.829C27.3088 181.617 28.9265 180.839 30.663 180.606Z" fill="#EB996E"/>
<path d="M30.7106 178.122C30.1331 178.488 29.5144 178.786 28.8673 179.008C28.2685 179.341 27.6343 179.606 26.9766 179.799C27.4604 179.295 28.0569 178.912 28.717 178.683C29.327 178.339 30.0107 178.146 30.7106 178.122Z" fill="#EB996E"/>
<path d="M97.962 99.5256C98.5049 99.9537 98.975 100.467 99.3544 101.045C100.332 102.405 101.058 103.93 101.498 105.546C101.936 107.161 102.078 108.841 101.918 110.506C101.884 111.198 101.737 111.879 101.482 112.523C101.411 112.523 101.569 111.732 101.625 110.482C101.775 107.206 100.898 103.965 99.117 101.211C98.4288 100.159 97.9067 99.5731 97.962 99.5256Z" fill="#263238"/>
<path d="M94.5049 98.4893C97.1156 98.4893 99.5205 100.902 99.742 103.505C100.011 106.59 100.043 111.163 98.5158 114.746C95.9605 120.727 70.0362 151.477 70.0362 151.477L45.0453 177.789L38.6057 171.342C38.6057 171.342 51.8883 149.634 53.692 147.015C57.4418 141.549 66.8797 131.921 70.6216 125.529C74.3635 119.137 82.7254 107.413 85.249 104.858C87.7726 102.302 89.8928 98.4972 94.5049 98.4893Z" fill="#FA602D"/>
<path d="M79.0467 128.448C78.0206 128.505 77.0358 128.872 76.2225 129.5C75.9694 129.738 75.7558 130.165 76.0089 130.41C76.0977 130.475 76.2002 130.519 76.3085 130.538C76.4169 130.557 76.5282 130.552 76.6339 130.521C80.5498 130.015 84.1731 129.73 88.089 129.216L88.3896 128.757C85.3168 128.113 82.1554 128.008 79.0467 128.448Z" fill="#FAFAFA"/>
<path d="M85.3676 123.164C86.4322 124.811 87.665 126.344 89.0463 127.736L89.2599 127.372C88.8953 125.513 88.3385 123.697 87.5985 121.953C86.853 120.2 85.585 118.719 83.9674 117.713C83.8414 119.633 84.332 121.542 85.3676 123.164Z" fill="#FAFAFA"/>
<path d="M90.9133 118.963C90.7551 121.392 90.6206 123.71 90.4624 126.154L91.5304 124.097C92.4647 121.827 93.0386 119.425 93.2313 116.977C93.2594 116.686 93.2271 116.393 93.1363 116.115C93.088 115.977 93.0026 115.856 92.8895 115.764C92.7765 115.671 92.6401 115.612 92.4955 115.593C92.3363 115.599 92.1811 115.645 92.0432 115.724C91.9054 115.804 91.7891 115.917 91.7044 116.052C91.1591 116.923 90.8839 117.936 90.9133 118.963Z" fill="#FAFAFA"/>
<path d="M96.5145 117.792C96.4706 117.914 96.4093 118.028 96.3325 118.132C96.1743 118.378 95.9844 118.686 95.7471 119.05C95.225 119.841 94.4418 120.972 93.4529 122.341C91.4593 125.086 88.6114 128.804 85.3995 132.855C82.1876 136.905 79.2052 140.513 77.0138 143.139C75.9221 144.429 75.0203 145.465 74.3953 146.177L73.6596 146.968C73.4855 147.15 73.3906 147.245 73.3827 147.229C73.3748 147.213 73.446 147.118 73.5963 146.913L74.2766 146.058L76.7923 142.941L85.0831 132.657C88.2949 128.614 91.1745 124.928 93.2235 122.23C94.2045 120.909 95.0114 119.857 95.5968 119.018C95.8499 118.67 96.0636 118.378 96.2455 118.14C96.3185 118.012 96.409 117.895 96.5145 117.792Z" fill="#263238"/>
<path d="M55.4326 144.658C58.439 145.558 61.5791 145.927 64.7122 145.75C65.7379 145.787 66.7505 145.511 67.6156 144.959C67.8925 144.745 68.1377 144.342 67.9083 144.073C67.8241 144.001 67.7249 143.95 67.618 143.922C67.5111 143.895 67.3993 143.892 67.2912 143.914C63.3357 144.08 59.7125 144.08 55.7728 144.247" fill="#FAFAFA"/>
<path d="M57.9719 150.48C57.0515 148.75 55.9539 147.119 54.6967 145.615L54.4436 145.963C54.6555 147.845 55.0584 149.701 55.6461 151.501C56.2395 153.314 57.3777 154.9 58.9054 156.042C59.1939 154.136 58.8669 152.188 57.9719 150.48Z" fill="#FAFAFA"/>
<path d="M52.1098 154.919C52.4737 152.506 52.806 150.172 53.1699 147.799L51.9279 149.753C50.8064 151.941 50.0299 154.289 49.6258 156.714C49.5665 156.999 49.5665 157.292 49.6258 157.577C49.661 157.717 49.7343 157.846 49.8375 157.947C49.9408 158.049 50.07 158.121 50.2112 158.154C50.3721 158.163 50.5327 158.133 50.679 158.065C50.8252 157.998 50.9526 157.895 51.0498 157.767C51.6807 156.945 52.05 155.953 52.1098 154.919Z" fill="#FAFAFA"/>
<path d="M243.263 12.7498L246.926 17.4806L248.192 25.265L250.961 23.3189L253.73 27.4405L278.27 4.19797L243.263 12.7498Z" fill="#FA602D"/>
<path opacity="0.3" d="M250.921 23.3663L249.671 24.2207L248.785 19.8618L250.921 23.3663Z" fill="black"/>
<path opacity="0.3" d="M246.926 17.4806L278.27 4.19797L248.975 19.4188L248.192 25.265L246.926 17.4806Z" fill="black"/>
<path d="M278.27 4.19006C278.158 4.28307 278.036 4.36271 277.906 4.42739L276.83 5.03654L272.819 7.20416L259.481 14.2212L248.809 19.7589L248.88 19.5295C250.225 21.974 251.443 23.9359 252.314 25.2887C252.733 25.9374 253.065 26.4596 253.334 26.8709C253.467 27.047 253.579 27.2382 253.666 27.4405C253.509 27.284 253.369 27.1117 253.247 26.9263C252.986 26.5861 252.614 26.0719 252.155 25.4074C251.23 24.0784 249.964 22.1402 248.58 19.7036L248.493 19.5532L248.651 19.4662L259.291 13.8731L272.645 6.96683L276.719 4.91788L277.835 4.37202C277.969 4.28812 278.116 4.22666 278.27 4.19006Z" fill="#263238"/>
<path d="M278.27 4.19006C278.317 4.2929 271.292 7.35446 262.582 11.0964C253.872 14.8383 246.76 17.7258 246.76 17.623C246.76 17.5201 253.738 14.4585 262.448 10.7166C271.158 6.97473 278.23 4.09512 278.27 4.19006Z" fill="#263238"/>
<path d="M248.192 25.265C248.083 24.3141 248.11 23.3525 248.271 22.4091C248.302 21.4547 248.468 20.5093 248.762 19.6007C248.871 20.549 248.844 21.508 248.683 22.4487C248.657 23.4063 248.491 24.355 248.192 25.265Z" fill="#263238"/>
<path d="M218.107 44.5362C218.107 44.647 217.703 44.7973 217.149 44.8764C216.596 44.9555 216.153 44.8764 216.145 44.8052C216.137 44.734 216.564 44.5362 217.094 44.465C217.624 44.3938 218.083 44.4097 218.107 44.5362Z" fill="#263238"/>
<path d="M225.155 41.3718C225.218 41.4588 224.57 42.068 223.636 42.6218C223.096 43.0153 222.464 43.2632 221.801 43.3417C221.753 43.2309 222.513 42.8037 223.423 42.2658C223.949 41.8775 224.534 41.5757 225.155 41.3718Z" fill="#263238"/>
<path d="M230.258 35.5652C230.124 36.2181 229.824 36.8257 229.387 37.3293C228.763 38.2233 228.098 38.8087 228.011 38.7375C228.275 38.1398 228.627 37.5851 229.055 37.092C229.664 36.2297 230.155 35.5098 230.258 35.5652Z" fill="#263238"/>
<path d="M232.117 28.1129C232.369 28.735 232.43 29.4182 232.291 30.0749C232.284 30.7464 232.086 31.4021 231.721 31.9656C231.687 31.318 231.741 30.6688 231.88 30.0353C231.884 29.3875 231.963 28.7423 232.117 28.1129Z" fill="#263238"/>
<path d="M227.41 22.7651C228.083 22.6277 228.782 22.7552 229.364 23.1211C230.392 23.6353 230.851 24.4818 230.772 24.5213C230.693 24.5609 230.099 23.9438 229.19 23.485C228.28 23.0262 227.394 22.8917 227.41 22.7651Z" fill="#263238"/>
<path d="M221.239 26.5387C221.271 25.8558 221.553 25.2084 222.03 24.7191C222.408 24.1464 222.992 23.7413 223.66 23.5879C223.723 23.6907 223.003 24.1733 222.355 24.9802C221.706 25.7871 221.35 26.5782 221.239 26.5387Z" fill="#263238"/>
<path d="M222.513 33.8643C221.942 33.487 221.514 32.9302 221.295 32.2821C220.956 31.6963 220.822 31.0142 220.915 30.3439C221.227 30.9117 221.492 31.5044 221.706 32.1159C222.102 33.089 222.616 33.7773 222.513 33.8643Z" fill="#263238"/>
<path d="M229.285 37.2818C228.63 37.4256 227.948 37.3733 227.323 37.1315C226.659 37.0189 226.045 36.7103 225.559 36.2455C226.2 36.3377 226.829 36.5022 227.433 36.736C228.07 36.8421 228.692 37.0254 229.285 37.2818Z" fill="#263238"/>
<path d="M236.808 35.6996C236.326 36.1518 235.734 36.4707 235.091 36.6252C234.489 36.9145 233.819 37.0348 233.153 36.9733C233.714 36.6452 234.319 36.3975 234.949 36.2376C235.539 35.9682 236.165 35.7869 236.808 35.6996Z" fill="#263238"/>
<path d="M243.121 31.1983C243.2 31.2774 242.583 31.9024 241.745 32.5827C241.282 33.0504 240.727 33.4168 240.115 33.6586C240.044 33.5637 240.661 32.9387 241.491 32.2663C241.956 31.8028 242.511 31.4394 243.121 31.1983Z" fill="#263238"/>
<path d="M246.982 26.7997C247.085 26.8472 246.982 27.2981 246.626 27.7569C246.27 28.2158 245.945 28.4927 245.835 28.4215C245.724 28.3503 245.961 27.9547 246.27 27.5196C246.578 27.0845 246.879 26.7523 246.982 26.7997Z" fill="#263238"/>
</svg>
