<svg width="25" height="25" viewBox="0 0 25 25" fill="none" xmlns="http://www.w3.org/2000/svg">
<path d="M24 0H1C0.446875 0 0 0.446875 0 1V24C0 24.5531 0.446875 25 1 25H24C24.5531 25 25 24.5531 25 24V1C25 0.446875 24.5531 0 24 0ZM8 19.75C8 19.8875 7.8875 20 7.75 20H5.25C5.1125 20 5 19.8875 5 19.75V5.25C5 5.1125 5.1125 5 5.25 5H7.75C7.8875 5 8 5.1125 8 5.25V19.75ZM14 11C14 11.1375 13.8875 11.25 13.75 11.25H11.25C11.1125 11.25 11 11.1375 11 11V5.25C11 5.1125 11.1125 5 11.25 5H13.75C13.8875 5 14 5.1125 14 5.25V11ZM20 13.25C20 13.3875 19.8875 13.5 19.75 13.5H17.25C17.1125 13.5 17 13.3875 17 13.25V5.25C17 5.1125 17.1125 5 17.25 5H19.75C19.8875 5 20 5.1125 20 5.25V13.25Z" fill="#9D9D9D"/>
</svg>
