<svg width="30" height="30" viewBox="0 0 30 30" fill="none" xmlns="http://www.w3.org/2000/svg">
<path d="M15 0C14.4378 -9.77836e-09 13.881 0.129251 13.3616 0.380373C12.8421 0.631496 12.3701 0.999572 11.9726 1.46359C11.575 1.9276 11.2596 2.47846 11.0445 3.08473C10.8293 3.69099 10.7186 4.34078 10.7186 4.99699C10.7186 5.65321 10.8293 6.303 11.0445 6.90926C11.2596 7.51552 11.575 8.06639 11.9726 8.5304C12.3701 8.99442 12.8421 9.36249 13.3616 9.61361C13.881 9.86474 14.4378 9.99399 15 9.99399C16.1355 9.99399 17.2245 9.46752 18.0274 8.5304C18.8303 7.59328 19.2814 6.32228 19.2814 4.99699C19.2814 3.67171 18.8303 2.4007 18.0274 1.46359C17.2245 0.526467 16.1355 0 15 0V0ZM24.6429 2.496C23.7904 2.496 22.9728 2.89124 22.37 3.59478C21.7672 4.29833 21.4286 5.25253 21.4286 6.24749C21.4286 7.24245 21.7672 8.19666 22.37 8.9002C22.9728 9.60374 23.7904 9.99899 24.6429 9.99899C25.4953 9.99899 26.3129 9.60374 26.9157 8.9002C27.5185 8.19666 27.8571 7.24245 27.8571 6.24749C27.8571 5.25253 27.5185 4.29833 26.9157 3.59478C26.3129 2.89124 25.4953 2.496 24.6429 2.496V2.496ZM5.35714 2.496C4.50466 2.496 3.6871 2.89124 3.0843 3.59478C2.4815 4.29833 2.14286 5.25253 2.14286 6.24749C2.14286 7.24245 2.4815 8.19666 3.0843 8.9002C3.6871 9.60374 4.50466 9.99899 5.35714 9.99899C6.20962 9.99899 7.02719 9.60374 7.62999 8.9002C8.23278 8.19666 8.57143 7.24245 8.57143 6.24749C8.57143 5.25253 8.23278 4.29833 7.62999 3.59478C7.02719 2.89124 6.20962 2.496 5.35714 2.496ZM8.57143 14.9835C8.57539 14.3232 8.8029 13.6916 9.20434 13.2263C9.60577 12.7611 10.1486 12.5 10.7143 12.5H19.2857C19.854 12.5 20.3991 12.7635 20.8009 13.2325C21.2028 13.7015 21.4286 14.3377 21.4286 15.001V22.504C21.4284 23.2911 21.3229 24.0733 21.1157 24.8224C20.6412 26.5198 19.6638 27.9643 18.359 28.8963C17.0541 29.8283 15.5073 30.1869 13.9963 29.9076C12.4854 29.6284 11.1092 28.7296 10.1149 27.3726C9.1206 26.0157 8.57336 24.2895 8.57143 22.504V14.9835ZM6.42857 15.001C6.42857 14.0881 6.63643 13.2353 7.00286 12.5H2.14286C1.57454 12.5 1.02949 12.7635 0.627629 13.2325C0.225765 13.7015 2.966e-07 14.3377 2.966e-07 15.001V21.2535C-0.000291531 22.2772 0.21477 23.2852 0.626299 24.1892C1.03783 25.0932 1.63324 25.8655 2.36023 26.4381C3.08723 27.0108 3.92358 27.3664 4.79584 27.4736C5.66809 27.5809 6.54957 27.4366 7.36286 27.0533C6.7461 25.6442 6.42583 24.0838 6.42857 22.5015V15.001ZM23.5714 15.001V22.504C23.5714 24.1421 23.235 25.6877 22.6371 27.0533C23.4504 27.4366 24.3319 27.5809 25.2042 27.4736C26.0764 27.3664 26.9128 27.0108 27.6398 26.4381C28.3668 25.8655 28.9622 25.0932 29.3737 24.1892C29.7852 23.2852 30.0003 22.2772 30 21.2535V15.001C30 14.3377 29.7742 13.7015 29.3724 13.2325C28.9705 12.7635 28.4255 12.5 27.8571 12.5H22.9971C23.3614 13.2353 23.5714 14.0881 23.5714 15.001Z" fill="#9D9D9D"/>
</svg>
